<svg xmlns="http://www.w3.org/2000/svg" version="1.1" viewBox="0 0 1536 1024" width="1536" height="1024">
<path transform="translate(1124,233)" d="m0 0 2 1-5 2v2l-4 1-1 3-10 5-2 4-4 1-2 5-5 1-1 7-1 1 4-1 5-4h4l1-3h2l6-4h2v-2l3-1 1 2h-2v2l5-1 1-3 7-1 5-3 3 1-10 7-33 21-36 24-5 5-2 1 1 6h3l-2 5 5 4-1 2h2l-1 5-15 10-16 9-9 6-20 11-9 6h-2v3h-2l-1 6-2 1v-3l-3 1-1 6 1 4-5 1 1 2 6 2-1 4-2 5-6 3-15 8-28 14-17 8-7 3-14 7-14 6-14 7-13 6-18 8-15 8-23 11-8 4-6 2-5 3-14 6-14 7-9 4-9 3-10 5-10 4-17 9-19 9-4 2-5 4 1 3-3 6 4 1-2 2 3 10v4l2 1 1 4 8 33 1 7v23l-4 16-6 10-6 6-3 9-1-4-1 3 2 2 2-1v5h3v2l4 2 2 2 7-4h4v-2l2 1 1 1v-3l6-2 6-9 2-5 3 1v7l-6 12-8 10-8 3h-6v2l3-1 1 1 7 1-3 5-5 2v2l-4-1-4 2-2-1-1 3-14-1-1 1h6v1h-14l-1-1-12-2-21-7-15-7-16-8-5-3v-2l-5-2-9-8-9-7-15-14-16-16-7-8-11-12-5-7v-2h-2l-8-14-3-7 4 1-7-15-6-15-8-29-2-14v-18h1l1 10 2 7 2-1 2 6-2-18v-17l2-10 2-5h2l-2 18 1 2 3-2 4-13 6-12 6-8 11-7 10-4 8-1h12v1l-19 3-9 4-5 3h-2l-1 3-6 5-7 14-2 9v4l3-5h2v-2h2l1-5 10-12 11-7 13-5 4-1h11l11 2 17 7 12 7 4 1 8 6-3-6-6-4-1-3 4 2 12 8v2l5 2 12 10 6 7 8 6 3 1 1 4 3 2v2l6 1 10-5 24-18 10-7 19-14 18-13 17-12 16-12 19-14 11-8 16-12 11-8 4-4 7-5 7-4 10-9 12-9 14-11 10-8 13-10 11-9 13-10 3-1v-2l7-5h2v-2l6-4 20-15 2 1-6 5 2 1 10 3v2l3-3h2v2l5-1 2-1 2 2h-2v2l8-1 4-4 7 1 2-4 2 1v-2l4-4 9-3 5-3v2l-12 9-15 11-10 7v2l-6 2-1 3-4 1-1 3h-2l-1 3h-2l1 2 5 2 1 2 4-4 8-4 14-8 23-15 16-10 14-9 17-10 10-7 10-6 18-11 13-9zm0 19-1 2h2zm-29 4m21 0m-1 2m-2 1 1 2 1-2zm-8 2m5 0m-124 37m-14 4m-1 1 1 6 2-2-1-2 3-1zm-2 1-1 4h2zm86 17m-93 2m93 0m2 0v2l2-1zm-98 7m4 1m2 1m-6 0-2 2 3 1zm5 1m11 51-1 2 3-1zm4 11m-383 90-1 2h2zm1 2m2 1m-50 29-8 3-8 7-5 10-2 9v12l3 16 8 17 11 14 9 9 14 10 10 5 14 3 12-1 10-4 6-7 3-6 1-4v-15l-4-14-6-13-8-1-11 2v-7l8-7-2-5-12-14-11-9-10-6-12-4zm70 178-2 4 4 4h3l1-2 1 3 3 2h3v-3l4 2v2h6l2-2-2-3-4-2h-7l-7-2 1-2zm15 1m-2 2m35 0m-34 1m43 0-1 2 5-1zm-8 1m6 1m-30 2m44 0m-43 1 2 2v-2zm-41 1m6 1m3 2-1 2 8 2h9v-1l-12-3z" fill="#60D0FA"/>
<path transform="translate(524,453)" d="m0 0h12v1l-19 3-9 4-5 3h-2l-1 3-6 5-7 14-2 9v4l3-5h2v-2h2l1-5 10-12 11-7 13-5 4-1h11l11 2 17 7 12 7 4 1 8 6-3-6-6-4-1-3 4 2 12 8v2l5 2 12 10 6 7 7 6 1 5-5 7-3 1h-3l-2 3v4l-2 1-2 5-5 2-2 3h-4l1 4 2 1-2 4h-2l-9-11-13-11-14-7-7-2h-10l-8 3-7 6-5 10-2 9v12l3 16 8 17 11 14 8 8 14 10 10 5 14 3 12-1 10-4 5-6 3-6 1-4v-15l-4-14-4-9 1-3 8 14h3l-2-14 4-3 2 1v-2l11-1v2l2 1 1 1 2-4 2 2 1-3 2 4 4-5 4 6 3 1 2 6v4l2 1 1 4 8 33 1 7v23l-4 16-6 10-6 6-3 9-1-4-1 3 2 2 2-1v5h3v2l4 2 2 2 7-4h4v-2l2 1 1 1v-3l6-2 6-9 2-5 3 1v7l-6 12-8 10-8 3h-6v2l3-1 1 1 7 1-3 5-5 2v2l-4-1-4 2-2-1-1 3-14-1-1 1h6v1h-14l-1-1-12-2-21-7-15-7-16-8-5-3v-2l-5-2-9-8-9-7-15-14-16-16-7-8-11-12-5-7v-2h-2l-8-14-3-7 4 1-7-15-6-15-8-29-2-14v-18h1l1 10 2 7 2-1 2 6-2-18v-17l2-10 2-5h2l-2 18 1 2 3-2 4-13 6-12 6-8 11-7 10-4zm72 32-1 2h2zm1 2m2 1m20 207-2 4 4 4h3l1-2 1 3 3 2h3v-3l4 2v2h6l2-2-2-3-4-2h-7l-7-2 1-2zm15 1m-2 2m35 0m-34 1m43 0-1 2 5-1zm-8 1m6 1m-30 2m44 0m-43 1 2 2v-2zm-41 1m6 1m3 2-1 2 8 2h9v-1l-12-3z" fill="#F0450A"/>
<path transform="translate(449,599)" d="m0 0 2 1 2 7h2l1-2 10 19 8 12 10 13 13 15 12 13 24 24 11 9 9 7-14-14-6-9-12-14-4-7h2v2l4 2 13 12 8 7 12 9 7 6 9 5 10 7 16 8 11 6 10 4 19 7 36 9 25 4 10 1h39l26-3 33-6 24-6 37-13 11-5 12-6 5-1v2h-3v2l3 1-12 7-18 9h6v3l4 1-21 9-13 4-42 12v3l20-4 30-9 17-6 34-16 10-6 18-11 14-10 10-8 5-3-3 10 1 2v3 6l-1 3-3 1v-3h-2v4l2 1v2h-2l-1 4-5 5-11 8-15 10-16 9-26 13-25 10-26 8-21 5-25 4-11 1h-48l-30-4-24-6-31-11-15-7-27-14-27-18-17-14-10-8-26-26v-2l-3-1-11-14-12-15-10-15-12-19-9-16-7-15zm7 11 1 2zm1 3m65 66m429 31m-396 8m1 1 1 2 2-1zm4 3m1 1m328 2m3 1m-6 1m-19 20m-73 26m-1 3 4 1z" fill="#FC7B03"/>
<path transform="translate(1124,233)" d="m0 0 2 1-5 2v2l-4 1-1 3-10 5-2 4-4 1-2 5-5 1-1 7-1 1 4-1 5-4h4l1-3h2l6-4h2v-2l3-1 1 2h-2v2l5-1 1-3 7-1 5-3 3 1-10 7-33 21-36 24-5 5-2 1 1 6h3l-2 5 5 4-1 2h2l-1 5-15 10-16 9-9 6-20 11-9 6h-2v3h-2l-1 6-2 1v-3l-3 1-1 6 1 4-5 1 1 2 6 2-1 4-2 5-6 3-15 8-28 14-17 8-7 3-14 7-14 6-14 7-13 6-18 8-12 6-2-1 15-8 8-4h2v-2l11-4 5-3-1-2 4-1-1-3 3-1-1-4 5-5 8-6 5-2 5-5 6-4 1-3 7-4h5l9-4 3-1 2-2 4-5 27-15 11-6h2v-2h-4v2l-4 2-4 1-5 1-1 2v-2h-2v3l-13 2-5 2v-3l-7 4-5 1-4 2h-5l-3-3v-3l22-13 19-12 16-10 14-9h3v-5l-10 5-9 4-17 1 1-2-8 4h-4l-8 2v-2l4-2v-3l5-4 6-5 7-5 4-4h2l1-3 6-4 3-3-9 5h-2v2l-16 10-16 12-13 9-21 14-16 11-10 7-5 3-5 1-9 5-7 4h-2v2l-11 6-3 3-5 1-9 4-3 2h-3l-1 3-5 1v2l-8-1v2h-4v-2l-4 1 5-5 11-8 16-12 11-8 4-4 7-5 7-4 10-9 12-9 14-11 10-8 13-10 11-9 13-10 3-1v-2l7-5h2v-2l6-4 20-15 2 1-6 5 2 1 10 3v2l3-3h2v2l5-1 2-1 2 2h-2v2l8-1 4-4 7 1 2-4 2 1v-2l4-4 9-3 5-3v2l-12 9-15 11-10 7v2l-6 2-1 3-4 1-1 3h-2l-1 3h-2l1 2 5 2 1 2 4-4 8-4 14-8 23-15 16-10 14-9 17-10 10-7 10-6 18-11 13-9zm0 19-1 2h2zm-29 4m21 0m-1 2m-2 1 1 2 1-2zm-8 2m5 0m-124 37m-14 4m-1 1 1 6 2-2-1-2 3-1zm-2 1-1 4h2zm86 17m-93 2m93 0m2 0v2l2-1zm-98 7m4 1m2 1m-6 0-2 2 3 1zm5 1m11 51-1 2 3-1z" fill="#30A6EC"/>
<path transform="translate(536,472)" d="m0 0h9l17 5 19 10 3 2v2h3l5 5 6 4 5 1 8 7-2 1v2l4 2 7 7-2 5v4l-2 1-2 5-5 2-2 3h-4l1 4 2 1-2 4h-2l-9-11-13-11-14-7-7-2h-10l-8 3-7 6-5 10-2 9v12l3 16 8 17 11 14 8 8 14 10 10 5 14 3 12-1 10-4 5-6 3-6 1-4v-15l-4-14-4-9 1-3 8 14h3l-2-14 4-3 2 1v-2h5l3 5 6 16 5 14 2 9v29l-1 2h2l1-9 2-16 3 2v12l-5 15h-2l-3 3-1-1-7 8-6 5 4 1-10 4 9-2 3-2h5l4-6h2l7-14 1-4v-19l2 3v19l-9 17-6 8 5-3h2l2-5 2-1-2 5-5 5-9 7-6 2-7 5v2h-4l-4-2-16-4-11-4-16-8-13-9-14-11-9-9 1 4-7-6-7-7-11-15-7-11-6-9-7-13 1-2 6 9 8 13 3 3h2l-9-15-4-4-8-15-4-10-3-10-3-16-1-18 3-16 3-7 5-1-2 5 1-1 5-4 1 5h-2l-2 9-1 5 4-8 5-5 3-6 9-7v-2l-8 3-1-3 14-5z" fill="#FDD610"/>
<path transform="translate(957,702)" d="m0 0 1 2-3 8 1 2v3 6l-1 3-3 1v-3h-2v4l2 1v2h-2l-1 4-5 5-11 8-15 10-16 9-26 13-25 10-26 8-21 5-25 4-11 1h-48l-9-1v-2l17 1-7-1v-7l6-4 5-2 3-1v-2l5-3 4-2-4-2-2-10 1-6 1-2h-17v-1l25-1 26-3 33-6 24-6 37-13 11-5 12-6 5-1v2h-3v2l3 1-12 7-18 9h6v3l4 1-21 9-13 4-42 12v3l20-4 30-9 17-6 34-16 10-6 18-11 14-10 10-8zm-6 8m-62 15m3 1m-6 1m-19 20m-73 26m-1 3 4 1z" fill="#8C4088"/>
<path transform="translate(482,509)" d="m0 0h1l4 25 5 15 2-3 3 10 5 12 8 14 4 4 6 11 1 3-3 1-7-10-8-14 1 4 10 17 14 20 8 10 9 9-1-4 7 6 10 9 11 8 13 8 16 8 17 5 8 2 5 2-1-4h4l6-5 7-2 10-8 2-4-4 4-5 2 2-4 7-11 5-10v-3l-4 10-5 8h-2l-2 4-3 3-5 1-5 2-7 1-3-2 10-3-3-1 9-6 7-8 2 1 4-4 4-13v-12l-1-1-2 15-2 9h-2v-31l-4-15-7-19h-1l-2-10 5-1v2l2 1 1 1 2-4 2 2 1-3 2 4 4-5 4 6 3 1 2 6v4l2 1 1 4 8 33 1 7v23l-4 16-4 7-8 7-7 6-5 2-4 2h-2l2 2-14 1h-15l-8-2-12-2-12-5-7-3v-2l-4-1-1 2-7-6-9-5-13-10-10-9-15-16-10-12-7-10 1-2v-3h-2l-10-17-1-7-11-26-2-7v-4h2l6 18 5 10h1l-7-22-3-15-2-17z" fill="#FD8302"/>
<path transform="translate(1014,282)" d="m0 0 1 2-12 9-15 11-10 7v2l-6 2-1 3-4 1-1 3h-2l-1 2-5 2-5 6-5 1-1 4 6-1h3v2l4-1v2l-16 9-11 7h-4l-8 2v-2l4-2v-3l5-4 6-5 7-5 4-4h2l1-3 6-4 3-3-9 5h-2v2l-16 10-16 12-13 9-21 14-16 11-10 7-5 3-5 1-9 5-7 4h-2v2l-11 6-3 3-5 1-9 4-3 2h-3l-1 3-5 1v2l-8-1v2h-4v-2l-4 1 5-5 11-8 16-12 11-8 4-4 7-5 7-4 10-9 12-9 14-11 10-8 13-10 11-9 13-10 3-1v-2l7-5h2v-2l6-4 20-15 2 1-6 5 2 1 10 3v2l3-3h2v2l5-1 2-1 2 2h-2v2l8-1 4-4 7 1 2-4 2 1v-2l4-4 9-3zm-28 16m-14 4m-1 1 1 6 2-2-1-2 3-1zm-2 1-1 4h2z" fill="#2266B5"/>
<path transform="translate(590,728)" d="m0 0 12 5 11 6 20 7 16 5 30 7 20 3 41 3-1 8 1 10 6 1-1 3-6 2-4 1v2l-4 3-7 3-2 2-1 6 25 1v1h-22l-13-1h-8l-22-4-24-7-27-10-24-12v-1h5l8 4v2l6 2 14 6 20 7 5 1v-1l15-1 5-1 13-2 7-2v-2h15l17 1v-2h-29l-25-3-23-5-27-9-12-6 1-2 4 2-1-2-3-1-2-5-5-5-3-2v-2l-10-4-1-2-2-1-1-3-7-4z" fill="#EF4109"/>
<path transform="translate(957,702)" d="m0 0 1 2-3 8 1 2v3 6l-1 3-3 1v-3h-2v4l2 1v2h-2l-1 4-5 5-11 8-15 10-16 9-26 13-25 10-9 2 1-2 10-4-2-1v2l-7 1-2-2-4-2 1-8 3-8 13-5v-2l29-13 19-9 18-11 18-12 13-10z" fill="#5D3381"/>
<path transform="translate(959,321)" d="m0 0v3l-9 6-4 4h-2l-1 3-7 5h-2l-2 4-4 1-1 3-2 2 2 1-6 2 1 1 9-2-1 4-17 10-10 7-18 11-22 14-7 3-12 4-4 1v-3l6-6-16 10-18 12-14 9-45 30h-4l1 2-14 7h-3l-9 4h-2l-1 2-7 3h-3v3l-7 3-1-2-8 5h-2l-1 3-11 7-15 11-10 7-2-1 24-18 10-7 19-14 18-13 17-12 28-21 6-1v2h4v-2l8 1v-2l-2-1 7-1 1-2 10-5h4l1-2 7-1 2-4 8-4h2v-2l9-5 10-6 6-1 13-9 16-11 21-14 18-13 16-11 9-6h2v-2z" fill="#30A4EB"/>
<path transform="translate(986,369)" d="m0 0v3l-2 3-3 1-2 8 1 4-5 1 1 2 6 2-1 4-2 5-6 3-15 8-28 14-17 8-7 3-14 7-14 6-14 7-13 6-18 8-12 6-2-1 15-8 8-4h2v-2l11-4 5-3-1-2 4-1-1-3 3-1-1-4 5-5 8-6 5-2 5-5 6-4 1-3 7-4h5l9-4 3-1 2-2 4-5 27-15 26-14zm-11 15-1 2 3-1z" fill="#2266B5"/>
<path transform="translate(658,562)" d="m0 0 3 3 2 3 3 1 2 6v4l2 1 1 4 8 33 1 7v23l-4 16-3 4-1-3-8 11-6 5-5 1 5-5 7-6 4-8-6 9-9 7-9 1 3-3 4-3 5-1 7-7 1-4-5 5-5 6-5 2-3 2-5-1 5-5 10-8 2-4-4 4-5 2 2-4 7-11 5-10v-3l-4 10-5 8h-2l-2 4-3 3-5 1-5 2-7 1-3-2 10-3-3-1 9-6 7-8 2 1 4-4 4-13v-12l-1-1-2 15-2 9h-2v-31l-4-15-7-19h-1l-2-10 5-1v2l2 1 1 1 2-4 2 2 1-3 2 4zm14 99v2h2v-2z" fill="#FB7E05"/>
<path transform="translate(1124,233)" d="m0 0 2 1-5 2v2l-4 1-1 3-10 5-2 4-4 1-2 5-5 1-1 7-1 1 4-1 5-4h4l1-3h2l6-4h2v-2l3-1 1 2h-2v2l5-1 1-3 7-1 5-3 3 1-10 7-33 21-18 12-8 5-3-1-7 4-8 4-6 4-2-1h-3l-1 5-6 2-10 4-5 3-5 1-2 2h-4l-4 1-6 2-4 1-1-4v-1h-2v2l-5 2-1 2-1-2 4-4 18-11 31-20 16-10 15-9 10-7 12-7 13-8 13-9zm0 19-1 2h2zm-29 4m21 0m-1 2m-2 1 1 2 1-2z" fill="#2267B6"/>
<path transform="translate(891,421)" d="m0 0 3 1-3 3-8 7-2 2-6 2-9 7-1 5 1 2-3 1v2l-3 2 1 2-11 5-6 1v2l-24 12-2 3-23 11-8 4-6 2-5 3-14 6-14 7-9 4-9 3-10 5-10 4-17 9-19 9-8 1v3l-5 4-4-1-1-4 1-2h4v-2l4-1 7-1 7-3 8-4 4-3 9-4 14-7 9-5 8-3 5-3 9-2 13-7 10-5-2-2 1-3 11-7 2-4 4-2v-3l52-27 29-15 22-12z" fill="#30A5EC"/>
<path transform="translate(895,722)" d="m0 0 1 2h-3v2l3 1-12 7-18 9h6v3l4 1-21 9-13 4-42 12-14 2-10 2-13 2-3-2-4 1-4-4v-3l3-2h3v-2l3-3-7 1-1-2 33-5 26-5 21-6 35-12 11-5 12-6z" fill="#5E3382"/>
<path transform="translate(1052,302)" d="m0 0h2v4h-2l1 6h3l-2 5 5 4-1 2h2l-1 5-15 10-16 9-9 6-18 10-2-1v-1l-8-1-3-1-2-2-1-2-5-1-2-3 2-4 5-1 2-1v-3l20-12 9-6 19-12 13-8zm3 19m0 2m2 0v2l2-1z" fill="#2266B5"/>
<path transform="translate(536,472)" d="m0 0h9l17 5 19 10 3 2v2h3l5 5 6 4 5 1 8 7-2 1v2l4 2 7 7-2 5v4l-2 1-2 5-8-4 2-6-1-4-5-5-13-11-10-7-14-8-7-1-4-2h-4l6 3 4 4-6-1-4-2v-2h-11l-8 2-9 4-4 3-2-1 3-3h2v-2l-8 5-7 9-3 6h-2l-1 4v28l-2-1-1-5-1-16-2-1-1-7-2 16h-1l-1-18 3-16 3-7 5-1-2 5 1-1 5-4 1 5h-2l-2 9-1 5 4-8 5-5 3-6 9-7v-2l-8 3-1-3 14-5z" fill="#FD8102"/>
<path transform="translate(531,462)" d="m0 0h11l11 2 17 7 12 7 4 1 8 6-3-6-6-4-1-3 4 2 12 8v2l5 2 12 10 6 7 7 6 1 5-5 7-3 1-5-3-7-7-2-1v-4l-8-6-5-1-9-7v-2h-3v-2l-5-2-17-9-17-5h-9l-10 2-12 4h-2l2 2 9-4 3 1-5 1 1 3-10 7-2 5-4 5-3 3-4 10-1-4 5-15v-4l-4 5-2-1 1-4-2 2-4-1 4-7 7-8 11-7 13-5zm65 23-1 2h2z" fill="#F04509"/>
<path transform="translate(597,752)" d="m0 0 9 2 19 9 24 9 23 6 24 4 11 1 29 1v2h-31l-1 2-7 2-13 2-18 2-4 1-19-7-16-6-8-4v-2l-5-1-9-6-7-4-4-3v-6z" fill="#FDE9DE"/>
<path transform="translate(669,519)" d="m0 0 5 1-3 9-5 5-17 11-17 8-5 4 12-5 4-2v2h5v-6h3 1 3v2h2v5l4 1 3-3h2v-3l7-1-2 2-3 1-3 3 1 3-3 6 4 1-2 2v4l-4-2-2-4-3 6-3-3-1 3-3-3v5l-4-5-1-1-7 1-3-1v2l-4 1-1 4 2 7-1 5h-4l-4-8-4-6-1-2h-7l-1-2 6-2-4-3-3-1-1-4 5-4 9-5 19-12 16-10 9-4z" fill="#C0C2D0"/>
<path transform="translate(959,321)" d="m0 0v3l-9 6-4 4h-2l-1 3-7 5h-2l-2 4-4 1-1 3-2 2 2 1-6 2 1 1 9-2-1 4-17 10-10 7-18 11-22 14-7 3-12 4-4 1v-3l9-9h2v-2l11-7 14-10 27-18 18-13 16-11 9-6h2v-2z" fill="#30A5EC"/>
<path transform="translate(517,673)" d="m0 0h2v2l4 2 13 12 8 7 12 9 7 6 9 5 10 7 8 5 3 3 6 4 1 2 7 5 5 1-1 3 4 2 5 5 1 3 2 1 1 1 1 3-4-1-3 1-19-10-14-9-12-8-11-8 1-3-4 1-2-3 1-1-11-9-8-8-6-9-12-14z" fill="#F0440C"/>
<path transform="translate(660,585)" d="m0 0 4 1 1 7 4 4 4 9 3 14v26l-2 15h-2l-2 6-7 9-5 4-5 1 5-5 7-6 4-8-6 9-9 7-9 1 3-3 4-3 5-1 7-7 1-4-5 5-5 6-5 2-3 2-5-1 5-5 10-8 2-4-4 4-5 2 2-4 7-11 5-10v-27l-4-24z" fill="#F04408"/>
<path transform="translate(561,656)" d="m0 0 5 2 17 10v2h4v2l6 1 3 1-3-3 15 3 18 5 5 2-1-4h4l6-5h5l-2 3 6-1 2-2 5-2 5-6 6-5-2 6-8 8-6 2-5 3 8-1 10-8 5-10 1 3-4 8-9 8-3 2 6-2 8-9 3-6 2 1v5l-10 9-6 5-5 2-4 2h-2l2 2-14 1h-15l-8-2-12-2-7-3v-3l10 1-10-4-21-12-10-8zm111 5h2v2h-2z" fill="#FC7F03"/>
<path transform="translate(669,519)" d="m0 0 5 1-3 9-5 5-17 11-17 8-11 7-5 2-5-1-3-1-1-4 5-4 9-5 19-12 16-10 9-4z" fill="#FBFBFB"/>
<path transform="translate(449,599)" d="m0 0 2 1 2 7h2l1-2 10 19 8 12 10 13 13 15 12 13 11 11h-3l-5-4-2 5h-3l6 7v2l-3-1-11-14-12-15-10-15-12-19-9-16-7-15zm7 11 1 2z" fill="#EF450F"/>
<path transform="translate(555,722)" d="m0 0 8 1 1 4 21 14 14 9 3 2v2l-5-1-2 3v6l7 5 7 4v1h-5l-14-8-17-11v-3l-4-2-14-11-1-2h8l1-5-5-5z" fill="#FC7F03"/>
<path transform="translate(631,509)" d="m0 0 3 1 1 4 3 2v2l6 2-4 2-3-1-2 4h-2l1 5h-3l-2 6-4 4h-3v2h-2l-2 4-3 3-3 1-5 5-2-1-2-5 2-4-2-5 4-1 5-5 2-1 2-4 2-1-1-4h2l1-3h5l5-7z" fill="#B9BDD1"/>
<path transform="translate(551,479)" d="m0 0 9 2 17 9 3 1v-2h4v2h3l5 5 6 4 5 1 8 7-2 1v2l4 2 7 7-2 5v4l-2 1-2 5-8-4 2-6-1-4-5-5-7-8-10-8-12-9-22-11z" fill="#FC8204"/>
<path transform="translate(957,702)" d="m0 0 1 2-3 8 1 2v3 6l-1 3-3 1v-3h-2v4l2 1v2h-2l-1 4-5 5-11 8h-3v-4h-2l1-5 3-5 2-7-4 1 3-3 4-1v-3h3l1-2 2-3 2-5 8-6z" fill="#B5B8CF"/>
<path transform="translate(576,722)" d="m0 0 5 2 5 4 2 3 7 1 4 3 1 2 7 5 5 1-1 3 4 2 5 5 1 3 2 1 1 1 1 3-9-3-17-9-12-8-11-7-1-3 1-3-6 1-2-5h6 2z" fill="#FD8102"/>
<path transform="translate(525,483)" d="m0 0 3 1-9 5-4 2v2h-2l-2 7-5 6-3 6h-2l-1 4v28l-2-1-1-5-1-16-2-1-1-7-2 16h-1l-1-18 3-16 3-7 5-1-2 5 1-1 5-4 1 5h-2l-2 9-1 5 4-8 5-5 2-4h3v-2l8-4z" fill="#FE8202"/>
<path transform="translate(1014,282)" d="m0 0 1 2-12 9-10 7-1-2-9 6-5 2-3 4h-3l-1 3-7 1-2-2 1-7-5 2-1-2 1-4-5-1-1-2-8 2-1 2-2-1 1-4 12-9 2 1-6 5 2 1 10 3v2l3-3h2v2l5-1 2-1 2 2h-2v2l8-1 4-4 7 1 2-4 2 1v-2l4-4 9-3zm-28 16m-14 4m-1 1 1 6 2-2-1-2 3-1zm-2 1-1 4h2z" fill="#2FA5EC"/>
<path transform="translate(584,472)" d="m0 0 4 2 12 8v2l5 2 12 10 6 7 7 6 1 5-5 5-5-5-11-12-5-5-7-6-3-2v-2l1-1-4-5-8-8z" fill="#F1521F"/>
<path transform="translate(1135,247)" d="m0 0 3 1-10 7-11 7-7 4v-2l-7 3-5 2-2-1-1 4-14 1-1-5 1-3h3l2-4 8-6 3-1 1-2h2l-2 5-5 1-1 7-1 1 4-1 5-4h4l1-3h2l6-4h2v-2l3-1 1 2h-2v2l5-1 1-3 7-1zm-11 5-1 2h2zm-29 4m21 0m-1 2m-2 1 1 2 1-2z" fill="#30A5EC"/>
<path transform="translate(669,519)" d="m0 0 5 1-3 9-5 5-14 9-2-1 3-1 1-6-8 2-1-3 1-3 12-7 7-3z" fill="#DFE5ED"/>
<path transform="translate(555,722)" d="m0 0 8 1 1 4 21 14 14 9 3 2v2l-4-1-3-3-11-7-6-4-5 2-4 4 4 5-4-2-14-11-1-2h8l1-5-5-5z" fill="#FDD718"/>
<path transform="translate(667,628)" d="m0 0 2 2-1 16-5 14-7 8-6 4-2-1 2-4 7-5 2-4-4 4-5 2 2-4 7-11 5-10 2-2z" fill="#FC7A02"/>
<path transform="translate(660,639)" d="m0 0 2 3-5 9-2 3h-2l-2 4-3 3-5 1-5 2-7 1-3-2 10-3-3-1 9-6 7-8 2 1 4-4z" fill="#FD8202"/>
<path transform="translate(635,560)" d="m0 0h3l1 2 4 2-4 2-5-1v2l-4 1-1 4 2 7-1 5h-4l-4-8-4-6-1-2 2-2 5 1h2l1-3 4-3h3 1z" fill="#FDE9DE"/>
<path transform="translate(645,681)" d="m0 0 5 2 3 1-5 3h-2l2 2-14 1h-15l-8-2-10-2v-1h8l15 2h7l-18-2-4-2 23 1 10-1z" fill="#FED910"/>
<path transform="translate(1051,304)" d="m0 0 3 1-2 1 1 6h3l-2 5 5 4-1 2h2l-1 5-3 1-3-1-1 2-3-3 2-3h-3l1-3-2-1v-5l-3-4 4-4h2zm4 17m0 2m2 0v2l2-1z" fill="#2FA3EB"/>
<path transform="translate(620,521)" d="m0 0h3l2 5-3 1 1 6-5 5-6 3-1 2h-2v3h-2l-1 4-2-6-1-4 4-1 5-5 2-1 2-4 2-1-1-4h2z" fill="#FDE8DB"/>
<path transform="translate(501,612)" d="m0 0 4 2 6 9 3 6 5 5 9 10 11 12v2l-5-2-9-10-10-10-3-6v-2l-4-2-7-10z" fill="#FE8702"/>
<path transform="translate(618,569)" d="m0 0 4 5 3 9 3 10v18l-3 9-8 9-6 3-8 1h-11l-12-3-9-5 2-1 8 4 14 3 12-1 10-4 5-6 3-6 1-4v-15l-4-14-4-9z" fill="#FC7A02"/>
<path transform="translate(551,479)" d="m0 0 9 2 17 9 11 8 11 10 5 5 7 6-1 2-26-22-13-9-20-10z" fill="#FED910"/>
<path transform="translate(961,323)" d="m0 0 2 2h-2l1 2 5 2 1 2 3-2 3 1-10 6-5 2h-3v-2l-7 1h-3l2-4h3l1-2 5-5zm-2 7m4 1m2 1m-6 0-2 2 3 1z" fill="#2E9DE5"/>
<path transform="translate(608,553)" d="m0 0m-1 1m-2 1h2l1 5 4 1 4 2-1 2-6 1v2l-11 2-1-4 1-5z" fill="#68D0F8"/>
<path transform="translate(895,722)" d="m0 0 1 2h-3v2l3 1-12 7-12 6-2-1v-3l-2-2 11-5 12-6z" fill="#8A5C99"/>
<path transform="translate(573,658)" d="m0 0 5 2 14 8 9 4-3 1h-2l4 3-5-1-8-3v-2h-4v-2l-5-2-7-4-1-3h3z" fill="#FB8906"/>
<path transform="translate(524,453)" d="m0 0h12v1l-19 3-9 4-5 3h-2l-1 3-6 5-4 5-2-2 7-10 11-7 10-4z" fill="#F04811"/>
<path transform="translate(575,477)" d="m0 0 6 2 12 7h2l1 3 8 6 4 4v2l4 2 9 10 5 5-1 2-14-14-8-7-6-7-19-12z" fill="#FD8105"/>
<path transform="translate(669,659)" d="m0 0 1 3-4 8-9 8-3 2 6-2 8-9 3-6 2 1v5l-10 9-6 5-8 1 1-5 11-7 4-5zm3 2h2v2h-2z" fill="#FD8D04"/>
<path transform="translate(634,565)" d="m0 0 4 1 3 10 4 8 5 16 2 6 1 5v12l-1 8-2 1 1-19-2-10v-2h-2l-4-16-3-6-3-4z" fill="#FE8202"/>
<path transform="translate(561,656)" d="m0 0 5 2 17 10v2h4v2l6 1 7 3v2l7 2v1l-8-1-16-8-15-9-7-6z" fill="#F55806"/>
<path transform="translate(658,562)" d="m0 0 3 3 4 5h-3-2v5l-1 2-1 4-2-3v-3h-3l-4-4-1-5 2-2 2 2 1-3 2 4z" fill="#EF4B0B"/>
<path transform="translate(625,556)" d="m0 0 2 1 5-1-1 4-5-1 1 4-2 1-1 4-5-1-1 1h-8l-1-2 6-2 1-3 8-4z" fill="#CDDCE9"/>
<path transform="translate(1066,291)" d="m0 0 2 1v2l-10 7-4 2-6 2-6 4-3-1-1-3h2v-2l5-2v2l9-6 9-4z" fill="#2E9EE6"/>
<path transform="translate(544,633)" d="m0 0 7 6 10 9 10 7-2 1v2l-5-2-11-9-7-9z" fill="#FE8B03"/>
<path transform="translate(563,478)" d="m0 0 16 8 3 3h-2v2l3 1-3 1-18-10-2-2z" fill="#FD8403"/>
<path transform="translate(549,648)" d="m0 0 5 2 10 9 14 9 10 6 11 5 6 2v1l-9-1-20-11-17-12-10-9z" fill="#FED910"/>
<path transform="translate(592,680)" d="m0 0 17 2v2l22 2 4 2h-11l-15-2h-10l-7-3z" fill="#FA7905"/>
<path transform="translate(676,621)" d="m0 0h2l1 11v10l-2 13-2 6h-1v-8l1-7z" fill="#FE8202"/>
<path transform="translate(548,463)" d="m0 0 13 4 26 13 7 5-1 2-22-12-17-8-6-2z" fill="#F04109"/>
<path transform="translate(887,370)" d="m0 0 3 1-11 7-16 12-13 8-2-1 3-1v-2l11-7 14-10z" fill="#50C2F6"/>
<path transform="translate(659,615)" d="m0 0 3 2v12l-5 15h-3l4-17z" fill="#FED910"/>
<path transform="translate(480,576)" d="m0 0h2l8 16 7 11 2 6-3-1-9-15-7-15z" fill="#FEA207"/>
<path transform="translate(651,516)" d="m0 0 2 1-10 8-5 1 1 4-2 1-3-1-1-5h2l2-5 7 1v-2z" fill="#37A7EB"/>
<path transform="translate(525,483)" d="m0 0 3 1-9 5-4 2v2h-2l-2 4-9 12 1-6 6-9 2-4h3v-2l8-4z" fill="#FED910"/>
<path transform="translate(650,543)" d="m0 0m-1 1m-3 1 3 1-1 6h-5-3l-8 4-6 2 1-3z" fill="#5ACBF9"/>
<path transform="translate(1037,308)" d="m0 0h3v2l-16 10h-3v-2l2-1v-3l5-3 5-2z" fill="#32A7ED"/>
<path transform="translate(922,404)" d="m0 0 3 1-5 5-5 3-9 4-4-2z" fill="#30A6ED"/>
<path transform="translate(618,569)" d="m0 0 4 5 3 9 3 10v18l-3 9-3 2 2-5 2-7v-15l-4-14-4-9z" fill="#FD8002"/>
<path transform="translate(1135,247)" d="m0 0 3 1-10 7-11 7-7 4 2-5 12-6 2-4 7-3z" fill="#2978C3"/>
<path transform="translate(467,528)" d="m0 0h1l5 22 6 18 1 7-2-3-6-18v-3h-2l-3-17z" fill="#FC7B02"/>
<path transform="translate(666,659)" d="m0 0 1 2-4 6-8 7-4 1-5 3-12 2 3-3 10-2 4-3 5-2 5-6z" fill="#FE9F06"/>
<path transform="translate(856,458)" d="m0 0m-1 1 2 2-9 4-17 8-10 5-2-1 15-8 8-4h2v-2z" fill="#2573C0"/>
<path transform="translate(864,742)" d="m0 0 7 1 1 3 4 1-8 3-4 1h-7l3-2 1-1-2-2z" fill="#B4B6CD"/>
<path transform="translate(551,668)" d="m0 0 4 2 12 9 9 6 10 5-3 1-12-6-15-11-5-4z" fill="#FE8802"/>
<path transform="translate(535,522)" d="m0 0 2 2-6 8-3 8-1 6v12l1 11-2-4-1-5v-17l4-13z" fill="#FD8202"/>
<path transform="translate(1014,282)" d="m0 0 1 2-12 9-7 5h-3l1-5 3 1v-2l4-4 9-3z" fill="#2D99E1"/>
<path transform="translate(575,673)" d="m0 0h8l11 6-2 1v2l-5-1-7-3v-2l-5-2z" fill="#FE9A06"/>
<path transform="translate(549,515)" d="m0 0 15 1 11 5 2 3-18-6h-10l-10 3v-2z" fill="#FE8202"/>
<path transform="translate(1124,233)" d="m0 0 2 1-5 2v2l-4 1-1 3-10 5-2 4-4 1v-4l9-6 13-8z" fill="#44A3E3"/>
<path transform="translate(525,466)" d="m0 0 2 1-9 4h-2v2l-8 5-8 8-1-2 7-8 8-6z" fill="#FE8803"/>
<path transform="translate(501,612)" d="m0 0 4 2 6 9 4 7-1 2-2-4-4-2-7-10z" fill="#FE9E06"/>
<path transform="translate(580,526)" d="m0 0 5 2 11 9 9 9-1 3h-2l-9-11-13-11z" fill="#FB7B09"/>
<path transform="translate(619,505)" d="m0 0 4 2 2 4 4-1 2 1-1 4-4 4-5-7z" fill="#8F3F86"/>
<path transform="translate(606,772)" d="m0 0h5l8 4v2l6 2 16 7-1 2-19-8-15-8z" fill="#F25212"/>
<path transform="translate(895,722)" d="m0 0 1 2h-3v2l3 1-8 4v-4l-1 2-4 2h-5l2-3 11-5z" fill="#B1ADC8"/>
<path transform="translate(618,540)" d="m0 0h4v2h-2l-2 4-3 3-3 1-3 3v-4l5-7h4z" fill="#DFE5ED"/>
<path transform="translate(681,494)" d="m0 0m-2 1h2l-1 3-17 12-7 5-2-1 24-18z" fill="#39A8EB"/>
<path transform="translate(999,360)" d="m0 0 2 1-2 1zm-1 2v3l-8 5h-2v3h-2l-1 6-2 1v-3l-3 1 1-3h3l2-4 5-5z" fill="#2A8DD7"/>
<path transform="translate(954,288)" d="m0 0 2 1-6 5v3l-4 3h-2l-1 2-2-1 1-4z" fill="#2C97E0"/>
<path transform="translate(662,625)" d="m0 0h1l1 11-2 5h-2l-2 2 1-7z" fill="#F76205"/>
<path transform="translate(487,557)" d="m0 0 3 1 4 13-1 2-5-7-2-6z" fill="#F24C07"/>
<path transform="translate(599,749)" d="m0 0 5 2 16 8v2l-6-2-15-8z" fill="#F45B07"/>
<path transform="translate(578,735)" d="m0 0 8 4 10 7 3 2-1 2-13-8-7-5z" fill="#F24D07"/>
<path transform="translate(590,673)" d="m0 0 5 1 5 2v2l7 2v1l-8-1-11-5z" fill="#F65E05"/>
<path transform="translate(677,636)" d="m0 0h1v15l-3 10h-1v-8l1-7 1-1z" fill="#FEA006"/>
<path transform="translate(857,744)" d="m0 0h5v3l2 1-4 3v1h-6l-2-2z" fill="#8C438A"/>
<path transform="translate(551,735)" d="m0 0 4 1 16 13 2 1-1 2-11-8-10-8z" fill="#F55B0B"/>
<path transform="translate(979,378)" d="m0 0 1 4v3 3l-5 1 1 3-3-1v-6h3l-1-3 2-1v-2z" fill="#2FA2EA"/>
<path transform="translate(668,667)" d="m0 0v3l-8 9-4 2-3-1 10-8z" fill="#F35007"/>
<path transform="translate(847,394)" d="m0 0 4 2-13 8h-2l2-4z" fill="#2E9FE7"/>
<path transform="translate(573,658)" d="m0 0 5 2 4 4-5-2 5 4 1 2-5-2-7-4-1-3h3z" fill="#FEAB08"/>
<path transform="translate(480,576)" d="m0 0h2l8 17-2 2-8-17z" fill="#FE8402"/>
<path transform="translate(831,391)" d="m0 0 6 1-1 4-4 3h-3l1-5z" fill="#37ACEF"/>
<path transform="translate(976,392)" d="m0 0 6 1-1 4-2 5-5 1 1-2h2z" fill="#30A6ED"/>
<path transform="translate(863,386)" d="m0 0h2l-2 4-13 8-2-1 3-1v-2l11-7z" fill="#55C7F7"/>
<path transform="translate(600,500)" d="m0 0 7 4 4 5-3 1-9-8z" fill="#FE8202"/>
<path transform="translate(700,480)" d="m0 0m-1 1m-1 1v3l-5 2-1 3-9 6-2-1 11-9z" fill="#30A6ED"/>
<path transform="translate(527,463)" d="m0 0m-3 1h3v2l-13 5-4 3-2-1 6-5z" fill="#F04109"/>
<path transform="translate(663,656)" d="m0 0 1 2-6 8-8 6-2-1 2-4 6-2z" fill="#FE8202"/>
<path transform="translate(578,721)" d="m0 0 11 6 2 5-4-1v-2l-2-1-7-5z" fill="#F04408"/>
<path transform="translate(475,480)" d="m0 0h2l-2 16-3-2 1-9z" fill="#F25B27"/>
<path transform="translate(488,476)" d="m0 0h2l-1 5-3 6-2 1-1-3 4-8z" fill="#F24C07"/>
<path transform="translate(856,784)" d="m0 0 4 1-1 2-15 5-2-1 10-4h2v-2z" fill="#6D3F88"/>
<path transform="translate(649,668)" d="m0 0 2 1-1 2v3l-3 2-5-1 5-5z" fill="#F35207"/>
<path transform="translate(564,487)" d="m0 0 5 1 8 5v2l-5-1-5-3z" fill="#F76505"/>
<path transform="translate(1135,247)" d="m0 0 3 1-10 7-3-1 1-3 7-3z" fill="#489CDB"/>
<path transform="translate(515,608)" d="m0 0 5 5v3l3 1 4 6-1 2-8-10-3-5z" fill="#FED910"/>
<path transform="translate(682,540)" d="m0 0m-3 1h3v2l-8 4-4-1 5-4z" fill="#3CA7EA"/>
<path transform="translate(523,475)" d="m0 0 4 1-13 6-2-1v-2z" fill="#FE9404"/>
<path transform="translate(672,661)" d="m0 0h2v2h-2zm-1 2 2 1v5l-6 4v-3z" fill="#FC8A05"/>
<path transform="translate(551,643)" d="m0 0 4 2 11 10h-3l-10-8z" fill="#FED910"/>
<path transform="translate(581,478)" d="m0 0 5 1 8 6-1 2-12-7z" fill="#F0460F"/>
<path transform="translate(618,569)" d="m0 0 4 5 3 9-1 4-6-15z" fill="#FC8E1A"/>
<path transform="translate(853,761)" d="m0 0 4 2-10 4-2-1 2-3z" fill="#7D458C"/>
<path transform="translate(640,672)" d="m0 0h5l-2 3 1 2-9 1z" fill="#FE8202"/>
<path transform="translate(539,658)" d="m0 0 6 3v2l4 2 2 3-5-2-7-6z" fill="#FEA407"/>
<path transform="translate(666,574)" d="m0 0 2 1v4l2 1 1 4 1 5-3-1-3-10z" fill="#F47E57"/>
<path transform="translate(588,494)" d="m0 0 4 2 9 7 2 3-5-2-10-9z" fill="#FED910"/>
<path transform="translate(903,359)" d="m0 0 2 1-11 9h-3v-2z" fill="#52C4F6"/>
<path transform="translate(862,736)" d="m0 0 3 1-2 3-7 1-2 1v-3z" fill="#845394"/>
<path transform="translate(943,713)" d="m0 0 1 3-2 4-5 1 2-5z" fill="#6C3D87"/>
<path transform="translate(666,672)" d="m0 0v3l-9 8-4-1 9-6z" fill="#FECF0E"/>
<path transform="translate(794,772)" d="m0 0 6 1v2l2 1-5 1-5-2v-2z" fill="#B6BAD0"/>
<path transform="translate(932,727)" d="m0 0h2l-2 9-3-2v-4h2z" fill="#8D438A"/>
<path transform="translate(644,564)" d="m0 0 1 2 2 1 3 7v5l-2-3-4-9z" fill="#F34F07"/>
<path transform="translate(599,560)" d="m0 0h1l1 7 1 2-4 1-1-4 1-5z" fill="#DDE3EB"/>
<path transform="translate(507,475)" d="m0 0 2 2-9 9-1-2 7-8z" fill="#FE8202"/>
<path transform="translate(653,683)" d="m0 0 4 1h-2v2h-2l-1 3-2-1h-6l4-2z" fill="#FE8202"/>
<path transform="translate(592,680)" d="m0 0 7 1v2l2 1h-8z" fill="#F87307"/>
<path transform="translate(1060,322)" d="m0 0h5v2h-3l-1 2z" fill="#30A6ED"/>
<path transform="translate(963,696)" d="m0 0 2 1-4 4-2-1z" fill="#B6BAD0"/>
<path transform="translate(812,741)" d="m0 0h2v2h-2z" fill="#B6BAD0"/>
<path transform="translate(685,739)" d="m0 0 4 1z" fill="#F36B3E"/>
<path transform="translate(896,724)" d="m0 0 3 1-3 1z" fill="#B6BAD0"/>
<path transform="translate(704,667)" d="m0 0 3 1h-3z" fill="#F69574"/>
<path transform="translate(1120,250)" d="m0 0 2 1h-3z" fill="#30A6ED"/>
<path transform="translate(1141,244)" d="m0 0 2 1h-3z" fill="#51ABE5"/>
<path transform="translate(1127,231)" d="m0 0 2 1h-3z" fill="#30A6ED"/>
<path transform="translate(692,703)" d="m0 0 1 2-2-1z" fill="#F04109"/>
<path transform="translate(669,568)" d="m0 0" fill="#FDEADF"/>
<path transform="translate(574,466)" d="m0 0h2l-1 2z" fill="#F04109"/>
<path transform="translate(538,454)" d="m0 0 3 1z" fill="#F8B197"/>
<path transform="translate(602,438)" d="m0 0h2l-1 2z" fill="#B6BAD0"/>
<path transform="translate(977,389)" d="m0 0 3 1z" fill="#30A6ED"/>
<path transform="translate(980,384)" d="m0 0 3 1z" fill="#30A6ED"/>
<path transform="translate(1095,261)" d="m0 0h2l-1 2z" fill="#30A6ED"/>
<path transform="translate(880,744)" d="m0 0 2 1z" fill="#B6BAD0"/>
<path transform="translate(619,698)" d="m0 0" fill="#F69574"/>
<path transform="translate(701,691)" d="m0 0" fill="#F04109"/>
<path transform="translate(704,675)" d="m0 0" fill="#F04109"/>
<path transform="translate(711,673)" d="m0 0" fill="#F69574"/>
<path transform="translate(454,603)" d="m0 0" fill="#F69574"/>
<path transform="translate(448,596)" d="m0 0" fill="#FDEADF"/>
<path transform="translate(877,467)" d="m0 0 2 1z" fill="#30A6ED"/>
<path transform="translate(984,384)" d="m0 0" fill="#30A6ED"/>
<path transform="translate(969,328)" d="m0 0 2 1z" fill="#30A6ED"/>
<path transform="translate(980,321)" d="m0 0 2 1z" fill="#30A6ED"/>
<path transform="translate(1055,316)" d="m0 0" fill="#30A6ED"/>
<path transform="translate(978,313)" d="m0 0" fill="#30A6ED"/>
<path transform="translate(1194,312)" d="m0 0 2 1z" fill="#73B0DE"/>
<path transform="translate(1056,304)" d="m0 0 2 1z" fill="#30A6ED"/>
<path transform="translate(967,294)" d="m0 0" fill="#30A6ED"/>
<path transform="translate(954,291)" d="m0 0 2 1z" fill="#30A6ED"/>
<path transform="translate(1015,281)" d="m0 0 2 1z" fill="#30A6ED"/>
<path transform="translate(1138,246)" d="m0 0 2 1z" fill="#30A6ED"/>
<path transform="translate(1144,242)" d="m0 0 2 1z" fill="#73B0DE"/>
<path transform="translate(1148,240)" d="m0 0 2 1z" fill="#73B0DE"/>
<path transform="translate(1133,227)" d="m0 0 2 1z" fill="#73B0DE"/>
<path transform="translate(877,745)" d="m0 0" fill="#B6BAD0"/>
<path transform="translate(608,735)" d="m0 0" fill="#F04109"/>
<path transform="translate(952,731)" d="m0 0" fill="#B6BAD0"/>
<path transform="translate(899,723)" d="m0 0" fill="#B6BAD0"/>
<path transform="translate(900,722)" d="m0 0" fill="#B6BAD0"/>
<path transform="translate(899,719)" d="m0 0" fill="#B6BAD0"/>
<path transform="translate(900,718)" d="m0 0" fill="#B6BAD0"/>
<path transform="translate(902,717)" d="m0 0" fill="#B6BAD0"/>
<path transform="translate(688,713)" d="m0 0" fill="#FDEADF"/>
<path transform="translate(688,707)" d="m0 0" fill="#FDEADF"/>
<path transform="translate(693,702)" d="m0 0" fill="#F04109"/>
<path transform="translate(958,701)" d="m0 0" fill="#B6BAD0"/>
<path transform="translate(694,701)" d="m0 0" fill="#F04109"/>
<path transform="translate(696,700)" d="m0 0" fill="#F04109"/>
<path transform="translate(627,700)" d="m0 0" fill="#F04109"/>
<path transform="translate(620,700)" d="m0 0" fill="#FDEADF"/>
<path transform="translate(621,699)" d="m0 0" fill="#F04109"/>
<path transform="translate(697,698)" d="m0 0" fill="#F04109"/>
<path transform="translate(620,697)" d="m0 0" fill="#FDEADF"/>
<path transform="translate(966,693)" d="m0 0" fill="#B6BAD0"/>
<path transform="translate(700,693)" d="m0 0" fill="#F04109"/>
<path transform="translate(664,690)" d="m0 0" fill="#F04109"/>
<path transform="translate(516,672)" d="m0 0" fill="#F04109"/>
<path transform="translate(693,638)" d="m0 0" fill="#FDEADF"/>
<path transform="translate(453,602)" d="m0 0" fill="#F04109"/>
<path transform="translate(452,600)" d="m0 0" fill="#FDEADF"/>
<path transform="translate(483,596)" d="m0 0" fill="#FDEADF"/>
<path transform="translate(482,592)" d="m0 0" fill="#F04109"/>
<path transform="translate(448,591)" d="m0 0" fill="#FDEADF"/>
<path transform="translate(664,560)" d="m0 0" fill="#B6BAD0"/>
<path transform="translate(667,553)" d="m0 0" fill="#B6BAD0"/>
<path transform="translate(469,523)" d="m0 0" fill="#FDEADF"/>
<path transform="translate(639,517)" d="m0 0" fill="#B6BAD0"/>
<path transform="translate(638,516)" d="m0 0" fill="#B6BAD0"/>
<path transform="translate(636,513)" d="m0 0" fill="#B6BAD0"/>
<path transform="translate(476,478)" d="m0 0" fill="#FDEADF"/>
<path transform="translate(572,465)" d="m0 0" fill="#F04109"/>
<path transform="translate(568,463)" d="m0 0" fill="#F04109"/>
<path transform="translate(984,397)" d="m0 0" fill="#30A6ED"/>
<path transform="translate(984,392)" d="m0 0" fill="#30A6ED"/>
<path transform="translate(976,390)" d="m0 0" fill="#30A6ED"/>
<path transform="translate(1093,379)" d="m0 0" fill="#30A6ED"/>
<path transform="translate(968,329)" d="m0 0" fill="#30A6ED"/>
<path transform="translate(966,324)" d="m0 0" fill="#30A6ED"/>
<path transform="translate(976,323)" d="m0 0" fill="#30A6ED"/>
<path transform="translate(1064,320)" d="m0 0" fill="#30A6ED"/>
<path transform="translate(968,320)" d="m0 0" fill="#30A6ED"/>
<path transform="translate(1056,318)" d="m0 0" fill="#30A6ED"/>
<path transform="translate(1054,304)" d="m0 0" fill="#30A6ED"/>
<path transform="translate(1055,303)" d="m0 0" fill="#30A6ED"/>
<path transform="translate(976,297)" d="m0 0" fill="#30A6ED"/>
<path transform="translate(951,293)" d="m0 0" fill="#30A6ED"/>
<path transform="translate(956,289)" d="m0 0" fill="#30A6ED"/>
<path transform="translate(956,287)" d="m0 0" fill="#30A6ED"/>
<path transform="translate(958,285)" d="m0 0" fill="#30A6ED"/>
<path transform="translate(959,284)" d="m0 0" fill="#30A6ED"/>
<path transform="translate(1042,282)" d="m0 0" fill="#30A6ED"/>
<path transform="translate(1017,280)" d="m0 0" fill="#30A6ED"/>
<path transform="translate(1119,253)" d="m0 0" fill="#30A6ED"/>
<path transform="translate(1126,249)" d="m0 0" fill="#30A6ED"/>
<path transform="translate(1130,248)" d="m0 0" fill="#B6BAD0"/>
<path transform="translate(1143,243)" d="m0 0" fill="#30A6ED"/>
<path transform="translate(1129,230)" d="m0 0" fill="#30A6ED"/>
<path transform="translate(1135,226)" d="m0 0" fill="#B6BAD0"/>
<path transform="translate(1136,225)" d="m0 0" fill="#30A6ED"/>
<path transform="translate(1144,220)" d="m0 0" fill="#B6BAD0"/>
</svg>