<svg xmlns="http://www.w3.org/2000/svg" viewBox="0 90 900 490">
<path transform="translate(0)" d="m0 0h900v900h-900z" fill="#0A1A30"/>
<path transform="translate(447,165)" d="m0 0 7 1 23 13 24 14 26 15 24 14 26 15 20 12 11 6 4 2 1 2v187l-10 7-5 1-1-2v-77l-4-2-16-13-9-7-1 57-8-4-17-12-2-2-1-63-14-11-13-11-3-2v60l-5-2-12-8-9-7-1-1-1-65-30-24 1 8v273l-3 1-11-6-23-13-26-15-24-14-28-16-48-28-2-3v-186l5-4 21-12 24-14 26-15 21-12 52-30z" fill="#FEFEFE"/>
<path transform="translate(448,142)" d="m0 0 6 1 22 13 52 30 28 16 24 14 52 30 1 2v210l-7 5-22 12-24 14-21 12-26 15-21 12-19 11-29 17-14 8-14-8-156-90-12-7-1-1v-211l9-6 18-10 24-14 26-15 28-16 24-14 26-15zm-1 23-20 12-26 15-21 12-26 15-27 16-18 10-17 10-5 4v186l5 5 18 10 27 16 56 32 24 14 23 13 9 5 3-1v-277l-1-4 11 9 16 13 3 2 1 65 7 6 18 12h2v-60l11 9 16 13 3 2 1 63 10 8 16 10h1l1-57 11 9 14 11 4 2v78l4 1 11-7 1-1v-187l-3-3-10-6-11-6-28-16-48-28-28-16-17-10-16-9z" fill="#091930"/>
<path transform="translate(449,118)" d="m0 0 6 2 24 14 21 12 52 30 24 14 52 30 21 12 4 4v233l-4 4-20 11-24 14-78 45-24 14-28 16-24 14-5-2-27-15-24-14-28-16-17-10-78-45-17-10-8-6v-233l6-5 28-16 26-15 24-14 26-15 28-16 17-10 28-16zm-1 24-28 16-26 15-24 14-28 16-52 30-22 13-1 1v211l9 6 20 11 24 14 21 12 26 15 45 26 36 21 2 1 23-13 22-13 21-12 26-15 21-12 26-15 34-20 9-5 1-1v-210l-4-4-27-15-22-13-28-16-24-14-28-16-26-15-22-13z" fill="#FEFEFE"/>
<path transform="translate(393,305)" d="m0 0 6 4 17 14 4 4v21l-9 7-11 7-6 3z" fill="#091930"/>
<path transform="translate(336,353)" d="m0 0 4 2 14 11 8 7v20l-10 7-14 9h-2z" fill="#091930"/>
<path transform="translate(449,190)" d="m0 0 4 2 3 6 1 8-2 7 5-5h10l3 4-1 7-2 2h-5l-2-4-5 1-2 3v6l8 1-1 5-6 1-2-5h-2v9l-1 2-4-1-1-14-4-8h-5l-3 4-4-1-3-4 2-6 4-3 7 1 3 3v-9l4-11z" fill="#0C1C31"/>
<path transform="translate(469,168)" d="m0 0h5l12 6 5 5v2h-3v-2l-4-1v-2l-6-2-9-4z" fill="#071534"/>
<path transform="translate(446,225)" d="m0 0 1 4-2 4-5 1-3-4 8-4z" fill="#091930"/>
<path transform="translate(346,364)" d="m0 0 5 4-1 3v-2h-13l1-3 1-1z" fill="#071534"/>
<path transform="translate(513,316)" d="m0 0h7v2l4 2 2 5-3-2v-2h-7z" fill="#071534"/>
<path transform="translate(542,211)" d="m0 0 5 1 7 4 1 2-4-1-7-3v-2z" fill="#071534"/>
</svg>
