<svg xmlns="http://www.w3.org/2000/svg" viewBox="0 0 900 900" width="225" height="225">
<path transform="translate(447,165)" d="m0 0 7 1 23 13 24 14 26 15 24 14 26 15 20 12 11 6 4 2 1 2v187l-10 7-5 1-1-2v-77l-4-2-16-13-9-7-1 57-8-4-17-12-2-2-1-63-14-11-13-11-3-2v60l-5-2-12-8-9-7-1-1-1-65-30-24 1 8v273l-3 1-11-6-23-13-26-15-24-14-28-16-48-28-2-3v-186l5-4 21-12 24-14 26-15 21-12 52-30z" fill="#FEFEFE"/>
<path transform="translate(448,142)" d="m0 0 6 1 22 13 52 30 28 16 24 14 52 30 1 2v210l-7 5-22 12-24 14-21 12-26 15-21 12-19 11-29 17-14 8-14-8-156-90-12-7-1-1v-211l9-6 18-10 24-14 26-15 28-16 24-14 26-15zm-1 23-20 12-26 15-21 12-26 15-27 16-18 10-17 10-5 4v186l5 5 18 10 27 16 56 32 24 14 23 13 9 5 3-1v-277l-1-4 11 9 16 13 3 2 1 65 7 6 18 12h2v-60l11 9 16 13 3 2 1 63 10 8 16 10h1l1-57 11 9 14 11 4 2v78l4 1 11-7 1-1v-187l-3-3-10-6-11-6-28-16-48-28-28-16-17-10-16-9z" fill="#091930"/>
<path transform="translate(449,118)" d="m0 0 6 2 24 14 21 12 52 30 24 14 52 30 21 12 4 4v233l-4 4-20 11-24 14-78 45-24 14-28 16-24 14-5-2-27-15-24-14-28-16-17-10-78-45-17-10-8-6v-233l6-5 28-16 26-15 24-14 26-15 28-16 17-10 28-16zm-1 24-28 16-26 15-24 14-28 16-52 30-22 13-1 1v211l9 6 20 11 24 14 21 12 26 15 45 26 36 21 2 1 23-13 22-13 21-12 26-15 21-12 26-15 34-20 9-5 1-1v-210l-4-4-27-15-22-13-28-16-24-14-28-16-26-15-22-13z" fill="#FEFEFE"/>
<path transform="translate(443,642)" d="m0 0h17l8 4 5 5 5 8 3 9 1 8v13l-3 14-7 10-9 6-5 1h-12l-5-3-2-2v-70z" fill="#091930"/>
<path transform="translate(414,638)" d="m0 0h48l13 4 10 6 8 9 5 11 1 6v12l-3 12-7 11-9 8-11 5-4 1h-51l2-2 6-2 1-4v-70l-3-4-6-2zm29 4-4 3v70l4 4 3 1h12l9-3 7-6 5-8 3-14v-13l-2-12-6-12-5-5-6-4-3-1z" fill="#FEFEFE"/>
<path transform="translate(360,637)" d="m0 0 4 4 12 23 10 19 8 17 9 16 4 4 6 2v1h-35v-2l6-2-5-13-7-13h-32l-7 14v7l4 5 8 3v1h-32l1-2 6-3 7-10 14-31 7-16 5-10z" fill="#FEFEFE"/>
<path transform="translate(734,638)" d="m0 0h58l1 1v19l-3-1-4-8-5-4-4-1h-18v32h16l6-2 5-6 2 1v22h-3l-2-7-10-2h-14v26l1 9 7 1 13-1 8-4 7-11h2l-1 20-1 1h-60l-1-2 8-2v-76l-8-4z" fill="#FEFEFE"/>
<path transform="translate(511,638)" d="m0 0h59l1 1v19l-3-3-5-7-5-3-4-1h-15l-2 3-1 29h15l8-2 5-6h1l1 24-5-5-2-3-7-2-16-1 1 34 3 3h12l8-2 5-3h2l2-5 4-6h2l-1 20-1 1h-61v-2l8-1v-75l-2-4-7-2z" fill="#FEFEFE"/>
<path transform="translate(241,636)" d="m0 0 17 2h36l17-1 6-1v24l-2 3-5-11-6-7-6-2h-9l-1 1v76l10 2v1l-11 1h-19l-7-1 1-2 6-2 2-1v-74l-2-1h-8l-8 4-6 8-4 8h-1z" fill="#FEFEFE"/>
<path transform="translate(144,637)" d="m0 0h22l9 2 4 3 2 8 1 13-3-1-6-11-5-5-4-3-6-2h-13l-12 6-6 7-4 9-2 10v16l3 12 6 9 2 4 4 2 10 4h15l8-4 7-8 5-8 2 1-2 16-6 5-15 3h-13l-12-2-12-5-10-9-6-9-4-11v-15l4-13 6-8 10-9 12-5z" fill="#FEFEFE"/>
<path transform="translate(586,637)" d="m0 0 7 1h26l-1 2-7 1-1 77h16l9-2 8-5 5-9 3-3v23l-1 1h-64v-2l7-1v-76l-2-3-6-1z" fill="#FEFEFE"/>
<path transform="translate(658,638)" d="m0 0h35l-1 2-8 2v76h15l10-2 8-6 6-9 3-3-1 24-1 1h-64v-2l7-2v-76l-9-4z" fill="#FEFEFE"/>
<path transform="translate(195,638)" d="m0 0h35l-1 2-8 3v74l1 2 7 2v2l-30 1-3-2 7-3 1-6v-67l-2-4-7-3z" fill="#FEFEFE"/>
<path transform="translate(393,305)" d="m0 0 6 4 17 14 4 4v21l-9 7-11 7-6 3z" fill="#091930"/>
<path transform="translate(336,353)" d="m0 0 4 2 14 11 8 7v20l-10 7-14 9h-2z" fill="#091930"/>
<path transform="translate(449,190)" d="m0 0 4 2 3 6 1 8-2 7 5-5h10l3 4-1 7-2 2h-5l-2-4-5 1-2 3v6l8 1-1 5-6 1-2-5h-2v9l-1 2-4-1-1-14-4-8h-5l-3 4-4-1-3-4 2-6 4-3 7 1 3 3v-9l4-11z" fill="#0C1C31"/>
<path transform="translate(354,659)" d="m0 0 5 5 10 21v3h-27l1-5 10-23z" fill="#091930"/>
<path transform="translate(349,537)" d="m0 0 5 1 5 3 5 2v2l6 2v2l4 1 15 8 10 6 9 5 14 9 3 1v2l5 1 7 3 11 5-1 3-14-5-7-5-10-5-23-14-20-11-9-6-14-8z" fill="#071533"/>
<path transform="translate(507,559)" d="m0 0 7 1-2 2-9 5-5 3-8 4h-3v2l-3 2h-3v2l-5 2h-3v2l-5 2-7 2-5 2v-2l8-4 4-1 4-4 6-3 3-1 1-2 7-2 1-2h6l2-4 4-2z" fill="#071534"/>
<path transform="translate(501,752)" d="m0 0h12l6 5 1 4-6-3-4-3h-6l-1 1v5l2 2 10 2 4 3 1 6-3 5-5 3h-8l-7-6v-6l5 5 4 3h6l4-5-1-4-13-3-4-4v-6z" fill="#FEFEFE"/>
<path transform="translate(546,752)" d="m0 0 3 1v22l-2 4-6 3-9-1-4-4-1-3v-21h3l1 20 3 5 4 1 5-3 2-6v-17z" fill="#FEFEFE"/>
<path transform="translate(389,752)" d="m0 0 3 1 1 20 5 5h6l3-3 1-4v-18l3-1v24l-5 5-2 1h-7l-6-4-2-4-1-14z" fill="#FEFEFE"/>
<path transform="translate(469,168)" d="m0 0h5l12 6 5 5v2h-3v-2l-4-1v-2l-6-2-9-4z" fill="#071534"/>
<path transform="translate(446,225)" d="m0 0 1 4-2 4-5 1-3-4 8-4z" fill="#091930"/>
<path transform="translate(346,364)" d="m0 0 5 4-1 3v-2h-13l1-3 1-1z" fill="#071534"/>
<path transform="translate(513,316)" d="m0 0h7v2l4 2 2 5-3-2v-2h-7z" fill="#071534"/>
<path transform="translate(542,211)" d="m0 0 5 1 7 4 1 2-4-1-7-3v-2z" fill="#071534"/>
<path transform="translate(366,753)" d="m0 0h4v24l-5 5-8-1-4-4v-5h2l6 7 4-2 1-2z" fill="#FEFEFE"/>
<path transform="translate(471,752)" d="m0 0h21v3h-8l-1 25h-3v-26h-10z" fill="#FEFEFE"/>
<path transform="translate(449,752)" d="m0 0h2v27l-4 3-8-1-3-3v-5h3l3 6 5-2 1-4z" fill="#FEFEFE"/>
<path transform="translate(378,753)" d="m0 0h3l1 27h-4l-1-26z" fill="#FEFEFE"/>
<path transform="translate(461,752)" d="m0 0 2 1v28l-3-1v-27z" fill="#FEFEFE"/>
</svg>
