<?xml version="1.0" encoding="UTF-8"?>
<svg version="1.1" viewBox="0 0 1024 1024" width="1024" height="1024" xmlns="http://www.w3.org/2000/svg">
<path transform="translate(496,173)" d="m0 0h34l32 3 25 5 24 7 18 6 25 11 21 11 19 12 18 13 11 9 12 11 8 7 9 10 11 12 12 16 12 18 12 21 12 26 9 25 7 27 4 20 3 23v46l-3 26-3 10-5-2-3-2 2-20 1-11v-39l-3-27-5-25-7-26-11-28-12-25-12-20-10-14-13-16-9-10-4-5-8-7-8-8-11-9-13-10-18-12-17-10-16-8-20-9-30-10-25-6-20-3h-5l-1 5 9 3 25 11 17 10 14 10 8 7 5 5 9 10 6 8v2l4 2 7 12 7 15 6 19 4 19-1 4-20-8-13-4-12-2h-21l3-3 14-4 13-1 3-1h-40l-5 1h-1l5 10v7l-4-1-3-4-2-5-3-1v3l-5-2-8-7-11-2-7 1 3 4-1 5 6 2 12 6 7 6 7 8 7 10 5 12 2 9 4 4v2l5 2 4 6v12l-3 8-4-1-1-4-3-1-2-3h-4l3 5v2l2 1 1 5-1 3 6 2 7 3 2 5v12l-7 18-7 13-3 1-2 4 1 27-3 14-7 10-12 12-8 6 4 5 8-5 6-5 2-2 1 3v9l-2 11v6l5-3 9-12 7-8 10-8 11-6 3 1-2 7 7-3 5-3 2-4 10-6 9-1v-2l-13 1-12 2-2-1 11-8 12-5 7-2-2-4-12-11-6-5-1-3 10 1 13 4-3-5-4-4-3-2 4-1 9 3 5 2-4-5 1-4 10-9 17-13 9-6 4 1 4 8 2 12v19l-2 5h-2l-5-30-1-3-5 2-11 11-4 6-1 3v12l3 5 10 6 7 4v3l-11 1-9-2-6-3 5 5 7 5 7 4v1h-9v3l11 1 21 1 14 2v-3l-4-1-5-3 4-2h15l8 4 6 7 4 9 10 1 17 10 19 9 18 11 6 5v9l-7 8-4 8-3 4-15 2-6 8-5 5-6 8-5 8-7 6-2 1h-7l2-5h-6l-6-4-12-13-9-2-9 2-14 5-13 7-2 4h6l4 3 4 1 19 1 13 4 10 6 5 5 6 7 3 6-1 3-6-1-7-2h-8v7l-2 1 6 8v3l-5 5-8 6-7 8-12 12-11 7-8 6-9 6-14 9-10 6-8 3-4 1v2l-19 8-21 3-6 2-4 4-12 6-19 5-7 2-30 3h-27l-6-3-5-2-13 4h-16l-24-5-17-6 4-4 5-3h2v-2h2v-2h-2l-5-5-9-11-11-14-9-12-5-5v-3l-12 5h-12l-1-3 1-2-10 5-7 10-6 9-5-1-10-6-5-5-11-9-7-6-2-4 8-8 1-4h-4v-2h-8l-9 1 1-6 5-8-6-2-3-3v-3l-5 3-7 8-4-2-7-8-5-5v-4l12-9 10-6 23-10 11-3 5-5-2-5-17-9-11-3h-15l-2 5-7 9-7 4-6 1v2h2v2h-7l-6-4-5-7v-2h-2l-4-7-9-8-4-6-3-3-13-1-4-5-3-7-5-3-5-9v-5l6-5 15-9 23-11 15-9 10-2h3l2-6 4-6 7-6 7-2h16l-1 3-6 3-2 6 16-3 3-1h20l3-1 5-5-10 1v-2l17-11-3-1-11 3-10-1 1-3 10-6 6-4 3-8v-8l-2-7-11-12-6-5-3 9-3 23-1 4h-2l-2-10v-14l3-17 3-6 6 1 14 10 12 9 9 7 3 4-3 4 6-2h5l-4 6-4 5 15-5 8-1 1 2h-3l-2 4-10 9-7 7 3 2 13 5 12 7 1 2-18 1 8 4v5l5-2 7 1v2h6l13 7 10 9 10 12 2 4v4l4 1 7 1v2h2l-4-16v-7l3 1 10 13 4 5 8 7 1 3h6l-1-7h3v-2h4l-2-6-2-7-2-2-5-2-18-12-9-8-8-10-4-9-1-4v-26l-1-8-5-5-4-7-7-17-1-5v-14l4-5 7-1 1-3-2-1v-3l-4-2-3-5-1-6v-11l8-7 4-8 6-16 7-11 9-10 11-8 18-10 2-6-1-5-15 5-12 8-5 2-4-1-6 9-4 1-1-4 6-12-7-1-33-1v2l9 1 16 4 3 3h-23l-18 4-15 6-9 4h-3l1-11 5-19 4-12 10-19 10-13 9-11 14-14 9-7 11-7 9-6 23-10 17-7 2-6-20 2-24 5-25 7-27 10-19 9-21 12-12 8-16 12-13 11-12 11-13 13-9 11-8 10-15 22-10 18-8 16-8 19-7 21-5 19-5 30-2 30v15l2 26 2 14v6l-5 3-4-1-3-13-2-17-1-16v-28l3-31 6-29 6-21 8-22 11-24 11-19 14-21 10-13 13-15 21-21 22-18 17-12 19-11 21-11 27-11 26-8 25-6 19-3zm-31 154-8 4-8 8-4 7-1 6 5 2 7 7 10-1 22-4v-12l-1-9-7-6-7-2zm15 50-16 3-9 5-4 6v6l5 2h43l-3-10-6-9-4-3zm-16 31-9 4-2 4 1 6 4 6 16 8 9 3h8l9-3v4h3l5-11 2-5 4-2 1 6 8 18 2 1 1-14 8 5 7 1 12-5 11-7 7-8-1-7-2-3-7-1h-25l-23 5-8-1-16-4z" fill="#03142B"/>
<path transform="translate(496,173)" d="m0 0h34l32 3 25 5 24 7 18 6 25 11 21 11 19 12 18 13 11 9 12 11 8 7 9 10 11 12 12 16 12 18 12 21 12 26 9 25 7 27 4 20 3 23v46l-3 26-3 10-5-2-3-2 2-20 1-11v-39l-3-27-5-25-7-26-11-28-12-25-12-20-10-14-13-16-9-10-4-5-8-7-8-8-11-9-13-10-18-12-17-10-16-8-20-9-30-10-25-6-20-3h-5l-1 5 9 3 25 11 17 10 14 10 8 7 5 5 9 10 6 8v2l4 2 7 12 7 15 6 19 4 19-1 4-20-8-13-4-12-2h-21l3-3 14-4 13-1 3-1h-40l-5 1h-1l5 10v7l-4-1-3-4-2-5-3-1v3l-5-2-8-7-11-2-7 1 3 4-1 5 6 2 12 6 7 6 7 8 7 10 5 12 2 9 4 4v2l5 2 4 6v12l-3 8-4-1-1-4-3-1-2-3h-4l3 5v2l2 1 1 5-6 3-10 1h-46l-23 5-8-1-16-4-26-1-8 1h-13l-12-2-5-1v-3l-4-2-3-5-1-6v-11l8-7 4-8 6-16 7-11 9-10 11-8 18-10 2-6-1-5-15 5-12 8-5 2-4-1-6 9-4 1-1-4 6-12-7-1-33-1v2l9 1 16 4 3 3h-23l-18 4-15 6-9 4h-3l1-11 5-19 4-12 10-19 10-13 9-11 14-14 9-7 11-7 9-6 23-10 17-7 2-6-20 2-24 5-25 7-27 10-19 9-21 12-12 8-16 12-13 11-12 11-13 13-9 11-8 10-15 22-10 18-8 16-8 19-7 21-5 19-5 30-2 30v15l2 26 2 14v6l-5 3-4-1-3-13-2-17-1-16v-28l3-31 6-29 6-21 8-22 11-24 11-19 14-21 10-13 13-15 21-21 22-18 17-12 19-11 21-11 27-11 26-8 25-6 19-3zm-31 154-8 4-8 8-4 7-1 6 5 2 7 7 10-1 22-4v-12l-1-9-7-6-7-2zm15 50-16 3-9 5-4 6v6l5 2h43l-3-10-6-9-4-3z" fill="#03142B"/>
<path transform="translate(319,434)" d="m0 0 6 1 14 10 12 9 9 7 3 4-3 4 6-2h5l-4 6-4 5 15-5 8-1 1 2h-3l-2 4-10 9-7 7 3 2 13 5 12 7 1 2-18 1 8 4v5l5-2 7 1v2h6l13 7 10 9 10 12 2 4-1 4-10-6-6-2 7 7 7 11 5 12 2 11v6h-3l-7-11-11-12-9-7-17-9 7 14-6-2-9-7-11-9-6-4 6 7 9 14 6 14 4 13 1 9-5-3-10-9-6-6 3 12v11l-5-1-7-11-6-18-1 3-2 18-3 10-3-1-9-12 3 10 2 10 1 17-7-6-8-7-3-1-5-5-14-7-11-3h-15l-2 5-7 9-7 4-6 1v2h2v2h-7l-6-4-5-7v-2h-2l-4-7-9-8-4-6-3-3-13-1-4-5-3-7-5-3-5-9v-5l6-5 15-9 23-11 15-9 10-2h3l2-6 4-6 7-6 7-2h16l-1 3-6 3-2 6 16-3 3-1h20l3-1 5-5-10 1v-2l17-11-3-1-11 3-10-1 1-3 10-6 6-4 3-8v-8l-2-7-11-12-6-5-3 9-3 23-1 4h-2l-2-10v-14l3-17z" fill="#04152C"/>
<path transform="translate(705,434)" d="m0 0 4 1 4 8 2 12v19l-2 5h-2l-5-30-1-3-5 2-11 11-4 6-1 3v12l3 5 10 6 7 4v3l-11 1-9-2-6-3 5 5 7 5 7 4v1h-9v3l11 1 21 1 14 2v-3l-4-1-5-3 4-2h15l8 4 6 7 4 9 10 1 17 10 19 9 18 11 6 5v9l-7 8-4 8-3 4-15 2-6 8-5 5-6 8-5 8-7 6-2 1h-7l2-5h-6l-6-4-12-13-9-2-9 2-14 5-13 7-11 9-8 6-1-2 5-25 3-8-9 12-1 2h-2l-4-13-2-21-4 14-4 10-8 8h-2v-16-3l-10 8-6 4h-3l2-11 5-16 7-14 8-10 3-4-12 7-11 9-8 4 3-9 4-5-18 10-10 8-3 3h-2l-2 4-10 11-3-1 7-21 7-12 8-9-4 1-8 3-3 2 1-6 8-11 7-7 14-9 6-2 1 3-2 5 7-3 5-3 2-4 10-6 9-1v-2l-13 1-12 2-2-1 11-8 12-5 7-2-2-4-12-11-6-5-1-3 10 1 13 4-3-5-4-4-3-2 4-1 9 3 5 2-4-5 1-4 10-9 17-13z" fill="#03142B"/>
<path transform="translate(444,569)" d="m0 0 7 2 18 13 22 12 19 9 27 9 25 4 20 1-1 2-7 4-11 7-17 9-15 4-13 2 13 2h16l14-3 19-7h2l3 10 7 9v2l-16 2 18 8 24 10 5 1h13l20-1 13-2-17-3-9-2 5-5 9-3 13 2 18 5 10 3-9-6-11-8-10-6v-2l11-7 11-6 9-4 9 2 15 9 10 9 2 1v2h2l8 10 3 4v3l-5 5-8 6-7 8-12 12-11 7-8 6-9 6-14 9-10 6-8 3-4 1v2l-19 8h-6l-25-13-44-24-28-17-16-10-20-14-13-10-11-9-10-9-9-11-7-10-3-9v-5l4 2 13 11 15 11 18 12 17 9 6 2-11-8-11-9-7-7-8-7-16-16-3-6 4 2 11 6 19 8 19 5h10l-15-5-16-8-14-10-11-9-8-8-12-16z" fill="#5D9FD4"/>
<path transform="translate(503,270)" d="m0 0h22l14 3 12 5 13 7 10 8 9 9 6 9 2 5v7l-4-1-3-4-2-5-3-1v3l-5-2-8-7-11-2-7 1 3 4-1 5 6 2 12 6 7 6 7 8 7 10 5 12 2 9 4 4v2l5 2 4 6v12l-3 8-4-1-1-4-3-1-2-3h-4l3 5v2l2 1 1 5-6 3-10 1h-46l-23 5-8-1-16-4-26-1-8 1h-13l-12-2-5-1v-3l-4-2-3-5-1-6v-11l8-7 4-8 6-16 7-11 9-10 11-8 18-10 2-6-1-5-15 5-12 8-5 2-4-1-6 9-4 1-1-4 6-12 10-11 13-10 10-6 19-7zm-38 57-8 4-8 8-4 7-1 6 5 2 7 7 10-1 22-4v-12l-1-9-7-6-7-2zm15 50-16 3-9 5-4 6v6l5 2h43l-3-10-6-9-4-3z" fill="#04152C"/>
<path transform="translate(496,173)" d="m0 0h34l32 3 25 5 24 7 18 6 25 11 21 11 19 12 18 13 11 9 12 11 8 7 9 10 11 12 12 16 12 18 12 21 12 26 9 25 7 27 4 20 3 23v46l-3 26-3 10-5-2-3-2 2-20 1-11v-39l-3-27-5-25-7-26-11-28-12-25-12-20-10-14-13-16-9-10-4-5-8-7-8-8-11-9-13-10-18-12-17-10-16-8-20-9-30-10-25-6-20-3h-5l-1 5 6 2-1 6-10 24-8 23h-1l1-26 1-15-8 36-4 21h-4l-3-48-2 15-2 31-1 3h-3l-10-48-2-7 2 29v11l-2-1-9-26-9-21-1-5 7-3 2-6-20 2-24 5-25 7-27 10-19 9-21 12-12 8-16 12-13 11-12 11-13 13-9 11-8 10-15 22-10 18-8 16-8 19-7 21-5 19-5 30-2 30v15l2 26 2 14v6l-5 3-4-1-3-13-2-17-1-16v-28l3-31 6-29 6-21 8-22 11-24 11-19 14-21 10-13 13-15 21-21 22-18 17-12 19-11 21-11 27-11 26-8 25-6 19-3z" fill="#A8D4EE"/>
<path transform="translate(808,597)" d="m0 0 7 1 2 2-8 20-10 20-14 22-13 18-11 13-11 12-11 11-11 9-9 8-17 12-15 10-18 10-25 12-24 9-28 8-25 5-26 3-33 1-32-2-30-5-28-7-28-10-15-7-16-8-19-11-16-11-13-10-11-9-12-11-21-21-9-11-13-18-10-16-12-23-9-21v-3l2-1h6l8 16 12 23 9 14 12 17 9 11 9 10 7 8 15 14 11 9 17 13 18 12 21 12 23 11 25 9 18 5 23 5 24 3 15 1h37l28-3 30-6 24-7 24-9 25-12 14-8 18-12 12-9 16-13 13-12 4-5 5-4 9-11 10-12 14-20 11-19 14-27z" fill="#A5D2EE"/>
<path transform="translate(625,520)" d="m0 0 3 1-1 5h-2l-2 6-1 5 9-7 9-5 9 1 7 3-1 2-10 4-8 7 12-5 7-1h22l10 2-2 4-10 8-6 5-6 9 14-7 8-2h10l-2 4-10 14-5 10-1 7 7-3 12-1v2l-4 4 8-2h5v4l-7 6-4 7 14-4h18l5 1-1 2-18 6-15 8-11 9-8 6-1-2 5-25 3-8-9 12-1 2h-2l-4-13-2-21-4 14-4 10-8 8h-2v-16-3l-10 8-6 4h-3l2-11 5-16 7-14 8-10 3-4-12 7-11 9-8 4 3-9 4-5-18 10-10 8-3 3h-2l-2 4-10 11-3-1 7-21 7-12 8-9-4 1-8 3-3 2 1-6 8-11 7-7 14-9z" fill="#AED6EF"/>
<path transform="translate(398,521)" d="m0 0 6 1 11 6 10 9 10 12 2 4-1 4-10-6-6-2 7 7 7 11 5 12 2 11v6h-3l-7-11-11-12-9-7-17-9 7 14-6-2-9-7-11-9-6-4 6 7 9 14 6 14 4 13 1 9-5-3-10-9-6-6 3 12v11l-5-1-7-11-6-18-1 3-2 18-3 10-3-1-9-12 3 10 2 10 1 17-7-6-8-7-3-1-5-5-14-7-15-4v-2l6-1h20l11 4-6-9-7-6 3-2 10 1 4 1-6-5v-1l11 1 9 3-3-11-7-12-9-11v-1h7l12 3 13 7-2-5-11-12-10-9 2-2 8-1h21l13 4 4 1-11-8-8-4 2-2 10-3h7l8 5 9 9-5-12z" fill="#AED6EF"/>
<path transform="translate(286,507)" d="m0 0h16l-1 3-6 3-2 6 16-3 3-1h16l22 12 5 3v1l-31 3 9 6 9 8-1 2-9-3-14-2h-9l11 8 8 9 8 13-1 4-11-8-14-9-9-4-5-1h-12l-11 2 19 2 1 2-16 2-12 5-16 8-17 7-10 1-4-3v-3l4-3h2l2-5 3-6 1-7-3-1h-12l-13 2-1 3 4 11 11 14v3l-5 1-4-5-3-7-5-3-5-9v-5l6-5 15-9 23-11 15-9 10-2h3l2-6 4-6 7-6z" fill="#ACD5EF"/>
<path transform="translate(729,507)" d="m0 0h15l8 4 6 7 4 9 10 1 17 10 19 9 18 11 1 2-14-2h-14l2 10 6 10 2 1-1 4-4 3-9-1-15-6-15-8-12-5-9-2-10-1 1-2 17-2-9-2h-12l-11 3-10 5-14 9h-2l2-6 9-12 7-7 6-4-15 1-16 2 5-5 10-7 4-2-23-2-9-2 3-3 15-8 12-5h16l14 2v-3l-4-1-5-3z" fill="#ADD6EF"/>
<path transform="translate(557,672)" d="m0 0 9 2 19 5 39 11 43 14 25 11 6 3-4 4-6 4-14 9-10 6-8 3-6 1-20-9-18-8-29-14-42-22-17-10-9-6 2-1 15 5 28 7 19 4h2l-24-18z" fill="#03142B"/>
<path transform="translate(408,569)" d="m0 0 6 4 9 10 8 16 3 9v4l-5-2-11-9-9-5 9 10 7 10 5 11 1 3v14l-4 9-2-3-3-11-6-13 2 14v20l-2 4h-2l-3-12-9-16-2-3 3 11 3 14v17l-2 3h-3l-5-12-6-8-10-11-7-11-3-7v13l2 11-7-6-6-8-3-10v-10l6-12 7 6 8 7 6 5-1-18 11 7 9 4-1-11-6-26-2-7 8 4 11 7 2 1-6-15z" fill="#B0D7F0"/>
<path transform="translate(614,571)" d="m0 0h2l-1 6-3 9 15-9 6-5 2 1-5 13-5 21-2 12 17-10h3v7l-3 9 16-10 7-7 3 1 4 10v11l-4 10-11 13-1-3 2-7 2-15h-2l-2 6-7 11-11 11-7 10-4 9-3-1-3-8v-11l5-21v-2l-8 13-4 10-1 5h-2l-3-8v-11l4-16-11 19-1 2h-2l-1-4v-14l4-9 6-9 11-13-11 6-11 8-1-3 6-18 7-12z" fill="#B0D7F0"/>
<path transform="translate(508,189)" d="m0 0 23 1 14 1 6 2-1 6-10 24-8 23h-1l1-26 1-15-8 36-4 21h-4l-3-48-2 15-2 31-1 3h-3l-10-48-2-7 2 29v11l-2-1-9-26-9-21-1-5 4-2 17-3z" fill="#B2D8F0"/>
<path transform="translate(319,434)" d="m0 0 6 1 14 10 12 9 9 7 3 4-3 4 6-2h5l-4 6-4 5 15-5 8-1 1 2h-3l-2 4-10 9-7 7 3 2 13 5 12 7 1 2-18 1 6 6-10 4-7 2-11-1-18-7v-3l4-3-10 1v-2l17-11-3-1-11 3-10-1 1-3 10-6 6-4 3-8v-8l-2-7-11-12-6-5-3 9-3 23-1 4h-2l-2-10v-14l3-17z" fill="#A7D2ED"/>
<path transform="translate(705,434)" d="m0 0 4 1 4 8 2 12v19l-2 5h-2l-5-30-1-3-5 2-11 11-4 6-1 3v12l3 5 10 6 7 4v3l-11 1-9-2-6-3 5 5 7 5 7 4v1h-9l1 4 3 3-22 7h-8l-19-6 3-3 8-3h5v-2l-13 1-12 2-2-1 11-8 12-5 7-2-2-4-12-11-6-5-1-3 10 1 13 4-3-5-4-4-3-2 4-1 9 3 5 2-4-5 1-4 10-9 17-13z" fill="#A9D4EE"/>
<path transform="translate(510,422)" d="m0 0h4l6 15 4 9 2-13 4 2 8 3 9-2 11-6 9-6v9l-4 12-12 15-3 8 3 16v4h-2l-5-6-12-6-3-1 3-14-10 8-5 2-10-1-2-2v-21l1-16z" fill="#ACD5EF"/>
<path transform="translate(539,312)" d="m0 0h11v2l6 2 12 6 7 6 7 8 7 10 5 12 1 9-6-1-2-1-5-12-6-9-8-9 10 20 2 9-26-5-10-3-8-7 2-6 4-6 9-8 7-4-6 1-11 6-7 7-8 13-4 2 2-14 5-16 6-8z" fill="#ADD5EE"/>
<path transform="translate(484,713)" d="m0 0 7 6 27 30 15 16 10 10 3 2v2l-13 1h-23l-11-12-9-11-24-30 5-5z" fill="#ACD6EF"/>
<path transform="translate(437,414)" d="m0 0 9 1 4 2 2 19 3 9 7 9 7 8 2 4-1 8-2 9v14l4 25 3 10 3 7v3l-5-1-18-12-9-8-8-10-4-9-1-4v-25l2-19 1-27 4 2 1 2 1 16v17l-1 26 2 12 6 10 5 6 10 8-4-16-2-15v-12l2-3h-1v-5l2-1 1-5-4-8-5-5-5-6-2-5-2-20-6-2-2-1v-7z" fill="#B0D6EE"/>
<path transform="translate(581,414)" d="m0 0h7l1 1-1 7-7 2-1 18-4 10-9 10-3 4 1 10 2 15v11l-2 14-3 9 8-6 5-5 6-7 4-10v-21l-1-17v-12l1-20 4-1 3 43 1 6 1 18-3 14-7 10-12 12-8 6-16 8 1-5 5-16 3-14 1-9v-17l-3-16 6-9 9-10 3-8 2-23z" fill="#B1D6EE"/>
<path transform="translate(459,380)" d="m0 0h5l-4 3-6 4-2 4v6l4 1h17l19 1v2l11 1 9 2 17-4 17-2h14l25 2h11l2 2-1 4-5 2-10 1h-46l-23 5-8-1-16-4-26-1-8 1h-13l-12-2-3-2v-4l4-2 5 1 3 1v-12l4-4 11-4z" fill="#A8D1EB"/>
<path transform="translate(386,287)" d="m0 0h11l13 2 15 5 9 6v1l-11-1-8-1h-9l-19 5-9 5 6-2 9-1h12l20 5 3 3h-23l-18 4-15 6-9 4h-3l1-11 5-19 3-8 8-2z" fill="#ACD5EF"/>
<path transform="translate(630,287)" d="m0 0h12l15 3 5 15 4 19-1 4-20-8-13-4-12-2h-21l3-3 14-4 19-2 7 2h4l-12-5-15-3-16 1-9 2-4-1 17-9 14-4z" fill="#ACD5EF"/>
<path transform="translate(589,212)" d="m0 0 5 2 12 8 9 7-4 4-16 12-8 7-7 8-7 7-7 9-1-3 8-17 8-13-7 6-9 11-8 13h-2l1-7 4-11 8-16 9-13z" fill="#B1D8F0"/>
<path transform="translate(436,213)" d="m0 0h2l7 8 13 17 8 14 7 17v2l-3-1-9-11-14-14 2 4 6 9 8 14 1 4-4-2-13-14-7-8-12-11-15-11 4-4 12-9z" fill="#AFD7F0"/>
<path transform="translate(409,233)" d="m0 0 9 6 14 12 10 10 9 13 5 8v2l-4-2-10-10-11-8 6 7 7 10 3 5-4-2-17-11-16-8-15-5-7-2 4-7 15-16z" fill="#ACD6EF"/>
<path transform="translate(557,196)" d="m0 0 6 2 18 8 5 4-7 6-11 15-12 19-9 15-1-4 6-20 6-15v-2l-9 15-9 19-2 5h-1l1-13 7-26 6-16z" fill="#B0D7F0"/>
<path transform="translate(617,234)" d="m0 0 5 2 10 11 6 8v2l2 1-14 3-17 7-13 8-12 9-2 1 2-5 7-10 5-6-7 4-13 12-1-4 7-11 8-10 12-11 11-8z" fill="#AED6EF"/>
<path transform="translate(468,198)" d="m0 0h2l10 22 7 22 4 17-1 3-10-19-7-12-5-5 7 15 6 21v3h-2l-11-20-11-16-13-16-2-4 23-10z" fill="#ADD6EF"/>
<path transform="translate(457,427)" d="m0 0 4 1 10 6 12 4h8l9-2-1 28h-3l-3-3 1 14-12 7-6 5-2-1 3-14v-7l-5-9-8-9-4-8-2-9z" fill="#ABD5EF"/>
<path transform="translate(661,426)" d="m0 0 1 4-6 7-3 2h8l22-4 2 1-10 10-8 7-10 7-8 4-8-1 2-4 4-5v-2l-14 7-7 1 5-8 1-1-18 1 2-5 17-10z" fill="#A6D3EE"/>
<path transform="translate(485,310)" d="m0 0 4 1 6 10 6 18 1 5v11l-5-1-4-11-5-6v-2l-4-2-7-4-4-1h-8l-8 4-7 7-4 7h-2l-1 6-4 13-9 3-1-4 6-16 7-11 9-10 11-8 11-6z" fill="#A5CDE7"/>
<path transform="translate(497,360)" d="m0 0h32l24 3 30 6 11 4 1 4-2 4-6-2-16-5-23-5-25-2h-12l-28 2-22 4-21 6-8 2-1-8 7-3 28-6 20-3z" fill="#B7DAF0"/>
<path transform="translate(720,570)" d="m0 0h7l11 8 10 15 9 16 10 7 9 1h7l1 2-7 8-5 3h-7l2-5h-6l-6-4-12-13-4-7-7-6-12-6v-1l9-2-12-5-11-2h-10v-2l8-4z" fill="#ADD5EE"/>
<path transform="translate(503,270)" d="m0 0h22l14 3 12 5 13 7 10 8 9 9 6 9 2 5v7l-4-1-3-4-4-9-8-10-10-8-15-8-13-4-12-2h-18l-18 4-16 7-14 10-10 11-4 8-5 5-3-1 1-4 4-9 9-11 12-10 13-8 19-7z" fill="#B7D9EF"/>
<path transform="translate(371,663)" d="m0 0 5 2 3 3-1 8-7 20-7 15-7 11-6 9-5-1-10-6-1-3 12-17 8-13 15-27z" fill="#66A6D8"/>
<path transform="translate(364,425)" d="m0 0 21 9 12 5 15 9v3h-15l3 5-1 4-13-5-5-3h-3l5 8-1 3-9-2-15-9-4-3v-2l3-1-9-7-3-3 1-2 16 4 10 2 3 2v-2l-4-2-6-7z" fill="#A7D3EE"/>
<path transform="translate(295,460)" d="m0 0h12l-2 4-10 5h-2v2l3-2 6 1-1 5-5 5h8l2 1-2 4-10 4-12 7-6 4v-8l-6 5-9 14-4 7h-2l-3-5v-6l6-9 8-8h-4l2-4 13-8 10-5 1-2-8 2h-9v-3l14-7z" fill="#A7D3EE"/>
<path transform="translate(503,307)" d="m0 0h15l14 2v4l-6 10-4 11-4 20h-11l-4-20-6-17-5-8z" fill="#B2D8F0"/>
<path transform="translate(611,701)" d="m0 0 10 2 37 10 22 7 9 4-5 5-20 12-4-2-9-8-19-14-21-15z" fill="#5B9ED4"/>
<path transform="translate(723,459)" d="m0 0 14 2 16 7 3 2v3l-13-1-3-1 3 3 16 10 3 5 10 12 3 6v8l-4 4-10-18-6-7v-2h-2v7l-6-2-9-6-14-7-2-4h11v-2l-4-2-4-3v-2l5-3-8-6z" fill="#A5D2EE"/>
<path transform="translate(304,570)" d="m0 0 12 2 9 4 2 2-1 1-14 2-12 5 7 1v2l-13 7-8 8v3h-2l-2 5-7 9-7 4-6 1v2h2v2h-7l-6-4-5-7v-2h9l9-2 6-4 4-5 10-18 11-13 5-4z" fill="#AED6EF"/>
<path transform="translate(535,375)" d="m0 0 16 1 21 5 12 4v11l-5 1-10-1h-34l-13 1 1-8 4-6z" fill="#B0D7F0"/>
<path transform="translate(585,561)" d="m0 0 1 2-7 18-4 6-5 5-10 7-12 4h27l8-1 4-2-2 4-5 5-5 1h-11l-20-3-18-6 1-2 16-8 15-9 16-12z" fill="#5B9ED4"/>
<path transform="translate(356,654)" d="m0 0 4 1 3 2-2 6-10 15-12 19-10 15h-2l-1 3-13-11-2-4 8-8 8-7 17-17 7-8z" fill="#5B9ED4"/>
<path transform="translate(512,512)" d="m0 0h6l8 7 3 5-1 4 3-1 3 2-2 11-5 8h-2l-2-14v-5h-2v9l-3 8-2 2h-5l-4-6-2-9-1 3-1 11-5-2-5-6-2-6v-9l2 2 3 7 4-13 4-6 3-1 3 8z" fill="#B2D8F0"/>
<path transform="translate(317,631)" d="m0 0h5l-2 1-2 4-9 11-9 10-11 14-5 5-4-2-7-8-5-5v-4l12-9 10-6 23-10z" fill="#60A1D5"/>
<path transform="translate(729,507)" d="m0 0h15l8 4 6 7 4 9 6 1 3 5 10 9h-3l-16-9-10-5 1 2 5 3 8 7-2 1-16-8-14-6-10-5-12 1-9 1 3-3 5-3 1-2-6-1v-1h14l14 2v-3l-4-1-5-3z" fill="#051830"/>
<path transform="translate(383,263)" d="m0 0 12 2 17 6 16 9 13 10 1 3-6-1-14-4-20-4h-24l-6 1 1-5 9-16z" fill="#AFD7F0"/>
<path transform="translate(463,741)" d="m0 0 5 4 8 10 3 5-14 9-10 5-8 1-21-7 4-4 13-7 17-13z" fill="#ACD5EF"/>
<path transform="translate(286,507)" d="m0 0h16l-1 3-6 3-2 6 16-3 5 1 12 7-1 2-11-3h-13l-15 8-8 3-16 8-2-1 10-9 1-2-19 10-5 2 6-7 7-5-2-2 5-1h3l2-6 4-6 7-6z" fill="#05172F"/>
<path transform="translate(643,262)" d="m0 0 3 4 8 16v2h-28l-17 3-19 6-4-1 7-7 13-9 16-8 14-4h7z" fill="#B0D7F0"/>
<path transform="translate(424,696)" d="m0 0 4 2 11 12 11 13 8 10-1 4-10 8-7-6-13-17-9-12-3-5z" fill="#B2D8F0"/>
<path transform="translate(335,642)" d="m0 0 4 1 10 6v2l-8 7-10 10-13 10-10 6v2l-9 1 1-6 5-8 5-5 10-11 7-8z" fill="#60A1D5"/>
<path transform="translate(548,551)" d="m0 0 1 3-3 12-6 11-9 10-11 4-3-2-2-9v-8l9-6 16-10z" fill="#B3D9F0"/>
<path transform="translate(463,689)" d="m0 0 4 2 11 13 1 3-3 3h-2v2l-11 9-4 1-9-10-9-12v-2l14-3z" fill="#AFD7F0"/>
<path transform="translate(539,312)" d="m0 0h11v2l6 2 6 3v4l-12 4-9 5-7 7-8 13-4 2 2-14 5-16 6-8z" fill="#AFD7EF"/>
<path transform="translate(502,495)" d="m0 0h21l9 3 6 4 1 2v8l-2 2-7-1-6-7-6-2h-11l-9 3-1 2h5v3l-6 3-5-1-2-2v-10l6-5z" fill="#B4D9F0"/>
<path transform="translate(583,528)" d="m0 0 2 3-1 7-3 10-6 10-9 9-14 10-1-2 5-12 4-14 11-9 5-5 6-5z" fill="#AFD6EE"/>
<path transform="translate(512,706)" d="m0 0 5 2 16 11 2 4-9 8-8 5-19-19 5-5z" fill="#AED7F0"/>
<path transform="translate(712,629)" d="m0 0h17l13 4 10 6 5 5 6 7 3 6-1 3-6-1-4-2-5-4-20-12-13-8-5-3z" fill="#69A7D8"/>
<path transform="translate(441,614)" d="m0 0 4 2 13 11 15 11 18 12 17 9 8 3v2l-10-3-20-11-20-14-15-12-7-6 2 8 7 11 9 10 10 10 14 11 13 10 29 19 20 12 19 11 28 15 22 12 9 5-3 1-34-18-22-12-26-15-24-15-16-11-19-14-13-11-9-8-9-11-7-10-3-9z" fill="#98C9E9"/>
<path transform="translate(444,569)" d="m0 0 7 2 18 13 22 12 19 9 27 9 25 4 20 1-1 2-7 4-11 7-17 9-15 4-13 1-3-2 18-2 16-5 18-10 7-5-31-4-19-5-25-10-23-12-11-7-11-8-6-3 10 13 9 10 10 8 15 10 16 8 17 6-4 1-15-5-16-8-14-10-11-9-8-8-12-16z" fill="#98C9E9"/>
<path transform="translate(607,463)" d="m0 0 9 3 10 6 10 8 6 5 1 3-6 8-9 8-14 6h-10l4-4 15-8 5-4h2l1-3h2l-7-8-15-13-2-5h-2z" fill="#A5D2EE"/>
<path transform="translate(557,737)" d="m0 0 14 8 13 7-2 5-7 9-5-2-11-8-13-10v-2z" fill="#AED7F0"/>
<path transform="translate(578,457)" d="m0 0 2 1 2 24v10l-2 9-7 12-4 2 1-16v-34z" fill="#B3D8F0"/>
<path transform="translate(414,464)" d="m0 0h4l-2 4-15 15-6 5 1 4 9 8 16 8-1 2h-10l-10-5-13-11-3-4 1-4 11-11 15-10z" fill="#A2D0ED"/>
<path transform="translate(419,674)" d="m0 0 1 4-2 9-4 6-11 10-4 3 1 5-2-1v-3l-12 5h-12l-1-3 2-2 5-2 14-8 10-8z" fill="#ACD3ED"/>
<path transform="translate(509,182)" d="m0 0 31 1 9 1-3 2-1 6-14-1-23-1-19 2-7 1 2-7-4-2z" fill="#04152D"/>
<path transform="translate(409,709)" d="m0 0 5 4 14 19 13 16-1 4-5 2-6-5-9-12-11-14-3-4-1-6z" fill="#A9D0E9"/>
<path transform="translate(585,561)" d="m0 0 1 2-7 18-4 6-5 5-10 7-8 3h-5l3-2 12-5 9-7 4-5 5-11 1-4-8 6-15 11-24 14-2 1 12 4 31-1 8-1 4-2-2 4-5 5-5 1h-11l-20-3-18-6 1-2 16-8 15-9 16-12z" fill="#97C8E9"/>
<path transform="translate(602,410)" d="m0 0 7 2 3 6v12l-7 18-7 13-4 1v-2h2l-1-5 3-15 7-12 2-9-9 7h-2v-11l4-3h2z" fill="#A6D0EC"/>
<path transform="translate(471,677)" d="m0 0 4 2 14 12 13 9 2 1-2 4-7 6-4-2-11-12-9-11-3-3 1-4z" fill="#B4D9F0"/>
<path transform="translate(419,411)" d="m0 0 6 1 4 6 1 9-6-4-5-4 4 12 6 13 2 12v6l-3-1-5-9-7-17-1-5v-14z" fill="#AAD3EE"/>
<path transform="translate(777,497)" d="m0 0 7 1 6 2 15 1-3 5-12 11 1 5 14 14-4 1-9-5-6-5-3-6 1-16-5-5z" fill="#A8D4EF"/>
<path transform="translate(246,496)" d="m0 0 3 1-2 4-3 4v18l-5 5-5 4-9 4h-2v-2l10-8 5-7-14-14-2-5h14z" fill="#A7D3EE"/>
<path transform="translate(447,458)" d="m0 0 4 3 1 3 2 28 4 20-1 4-5-5-5-8-2-7v-28l1-9z" fill="#B7DAF0"/>
<path transform="translate(539,751)" d="m0 0 5 2 16 12 11 8v2l-7 2-12 1 2-2-20-20z" fill="#B4D9F0"/>
<path transform="translate(706,658)" d="m0 0 12 7 9 7 6 5 4 5v4l-9 9h-2l-8-16-10-17z" fill="#03142B"/>
<path transform="translate(507,280)" d="m0 0h13l10 2-1 8-2 13-3 1-1-10 1-6h-21v8l-2 8h-3v-22z" fill="#B2D7EF"/>
<path transform="translate(699,636)" d="m0 0 9 2 15 9 10 9 2 1v2h2l5 6-1 3-7-8-8-8-14-9-9-4-7 1-22 12-2 3 5 2 12 9 10 7 3 3-6-2-16-12-12-7v-2l11-7 11-6zm-42 29 13 2 18 5 12 4 1 2-10-2-20-6-10-2-9 1-4 2 22 4 1 2-12-1-16-3 5-5z" fill="#96C7E8"/>
<path transform="translate(458,665)" d="m0 0 4 2 3 4-7 11-8 6-4 1h-11l-6-3 1-3 14-4 7-4 4-5z" fill="#B6DAF0"/>
<path transform="translate(507,372)" d="m0 0h12v18l-1 7-2 2-7-1-3-12v-13z" fill="#B4D9F0"/>
<path transform="translate(446,538)" d="m0 0 3 1 10 13 3 3 2 5 9 12-1 2-16-10-7-8-3-11z" fill="#A4CEE9"/>
<path transform="translate(729,507)" d="m0 0h15l8 4 6 7 3 9-5-1-10-7-8-4-8-3-5-3z" fill="#A9D3EE"/>
<path transform="translate(286,507)" d="m0 0h16l-1 3-6 3-10 4-16 11h-2l-1-3 5-9 8-7z" fill="#A6D0EB"/>
<path transform="translate(540,724)" d="m0 0 9 5-2 4-11 8-9 5-4-2-2-2v-3l14-10z" fill="#B7DAF0"/>
<path transform="translate(514,676)" d="m0 0 5 2 19 11 22 12 19 10 23 11 25 12 21 9 4 2v2h-5v-2l-26-11-25-12-44-22-23-13-15-10z" fill="#9ACAEA"/>
<path transform="translate(611,701)" d="m0 0 10 2 37 10 22 7 6 3v3l-1-2-5-1-18-6-37-10h-3l17 12 13 10 11 9v2l-4-2-8-7-19-14-21-15z" fill="#98C8E9"/>
<path transform="translate(458,608)" d="m0 0 4 2 11 6 19 8 19 5 12 1v1l-11 1-20-5-21-9-4-1 12 12 3 2v2l4 2 7 7 14 11 11 8-2 1-16-11-15-14-8-7-16-16z" fill="#99CAEA"/>
<path transform="translate(827,560)" d="m0 0 4 2 1 1v9l-7 8-4 8-3 4h-7l2-1-1-3 11-16 3-7z" fill="#A8D2ED"/>
<path transform="translate(202,557)" d="m0 0m-2 1h2l-1 5 4 11 11 14v3l-5 1-4-5-3-7-5-3-5-9v-5z" fill="#A4CEE9"/>
<path transform="translate(387,677)" d="m0 0 4 2 9 4-1 4-11 9-9 5 1-5 6-14z" fill="#B2D7EF"/>
<path transform="translate(441,614)" d="m0 0 4 2 13 11 15 11 18 12 17 9 8 3v2l-10-3-20-11-20-14-15-12-7-6 2 8 7 11 3 4-1 2-9-12-4-8z" fill="#97C8E9"/>
<path transform="translate(440,647)" d="m0 0 4 2 6 8-1 6-5 6-5-2-3-5 2-11z" fill="#B1D8F0"/>
<path transform="translate(542,288)" d="m0 0 10 3 13 8 12 11 3 2-1 3-5-2-8-7-3-1-3-3-17-9z" fill="#BADBF0"/>
<path transform="translate(424,373)" d="m0 0h1l1 11 1 9-5 8-3-2-2-9v-11z" fill="#A7D1ED"/>
<path transform="translate(477,560)" d="m0 0h4v2l4 2 10 12 6 8v2l-9-3-6-4-6-10-1-7h-2z" fill="#AED4ED"/>
<path transform="translate(600,373)" d="m0 0 5 2 4 6v12l-3 8-4-1-2-7z" fill="#A3D0EC"/>
<path transform="translate(356,654)" d="m0 0 4 1 3 2-2 6-10 15-12 19-10 15h-2l2-4 15-23 11-18 5-7-1-3-4 2-16 17-15 15-3 2 2-4 21-21 7-8z" fill="#91C4E7"/>
<path transform="translate(504,750)" d="m0 0 29 29v1h-10l-6-7-9-14-4-7z" fill="#03152C"/>
<path transform="translate(580,639)" d="m0 0h2l3 10 7 9v2l-7 1h-9l-3-2 14-1-8-16-15 6-12 3-7 1h-11l-14-2-4-2 15 1h16l14-3z" fill="#98C9E9"/>
<path transform="translate(586,600)" d="m0 0v3l-6 6-5 1h-11l-7-1v-2l-9-1 4-2 23-1 8-1z" fill="#8EC2E6"/>
<path transform="translate(484,288)" d="m0 0 1 4-3 3-12 5h-2v2l-14 9-5 2-2-1v-2l4-1 13-11 12-7z" fill="#BDDCF1"/>
<path transform="translate(484,766)" d="m0 0 4 1 3 5-8 7h-16l5-5z" fill="#ADD4EE"/>
<path transform="translate(556,673)" d="m0 0 5 2 12 9 11 8-3 1-16-4-26-6-20-6-4-3 9 2 30 8 21 4-17-12z" fill="#96C7E8"/>
<path transform="translate(488,375)" d="m0 0 6 1 6 7 5 13-1 3-4-1-3-3-4-9-3-7z" fill="#AFD4EC"/>
<path transform="translate(638,426)" d="m0 0 3 1-4 6-14 7h-5l-1-4 5-4 9-4z" fill="#A9D4EF"/>
<path transform="translate(691,469)" d="m0 0 3 3 5 8 8 8-1 3-9-2-6-5-1-3v-9z" fill="#A7D3EE"/>
<path transform="translate(409,233)" d="m0 0 9 6 14 12 10 10 9 13 5 8v2l-4-2-10-10-12-9 1-2 14 11 4 3-8-11-9-10-9-8-13-10z" fill="#CBE1F2"/>
<path transform="translate(589,758)" d="m0 0 16 2-1 3-14 7-5 1-3-2z" fill="#A3CFEC"/>
<path transform="translate(334,470)" d="m0 0h2l1 3v7l-4 7-4 3-8 1 2-6 5-5 5-8z" fill="#A7D3EE"/>
<path transform="translate(387,426)" d="m0 0 11 3 10 5 2 4-4 1-12-3-7-7z" fill="#A9D4EF"/>
<path transform="translate(573,619)" d="m0 0h9l-1 2-7 4-11 7-17 9-15 4-13 1-3-2 18-2 16-5 18-10 7-5h2v-2z" fill="#98C9E9"/>
<path transform="translate(335,642)" d="m0 0 4 1 10 6v2l-8 7-6 6-2-1 12-12v-2l-7-4-5 1-5 5-11 12-8 10-2 1 2-4 8-10 12-13z" fill="#8FC2E6"/>
<path transform="translate(488,718)" d="m0 0 4 2 7 8 11 12 7 8 16 17 10 10h-3l-19-19-7-8-14-15-7-8-5-5z" fill="#D4E8F5"/>
<path transform="translate(689,697)" d="m0 0 11 3 9 4 4 2-2 4-5 2v-2l-4-2-7-6-6-4z" fill="#03152C"/>
<path transform="translate(418,232)" d="m0 0 4 2 8 6 12 11 15 16 1 2 2-2 4 7v2l-4-2-13-14-7-8-12-11-10-7z" fill="#D1E5F4"/>
<path transform="translate(456,642)" d="m0 0 7 6 9 9 14 11 13 10 9 6-1 2-17-12-14-11-10-9-6-5-4-5z" fill="#9ACAEA"/>
<path transform="translate(500,484)" d="m0 0 6 1 2 1v2l-8 2-16 8 1-4 5-5z" fill="#B8D9EF"/>
<path transform="translate(257,578)" d="m0 0 3 3 3 9 1 6-3-1-5-6-4-4v-5z" fill="#ACD4EE"/>
<path transform="translate(466,726)" d="m0 0 3 1 9 11 11 14 11 13 7 8-1 2-7-7-9-11-24-30z" fill="#CEE3F3"/>
<path transform="translate(517,483)" d="m0 0 8 1 12 5 4 4-1 4-18-10-5-3z" fill="#B5D7EE"/>
<path transform="translate(471,226)" d="m0 0 4 4 9 15h1l1-4 2 6 3 12-1 3-10-19-7-12-2-2z" fill="#C7E0F2"/>
<path transform="translate(620,706)" d="m0 0 11 7 17 13 15 12v2l-4-2-8-7-19-14-11-8z" fill="#98C9E9"/>
<path transform="translate(771,598)" d="m0 0h2v11l-7 1-4-2 1-4z" fill="#B7D9F0"/>
<path transform="translate(255,599)" d="m0 0 5 1 8 6v2l-4 2h-6l-2-2z" fill="#B3D7EF"/>
<path transform="translate(771,580)" d="m0 0 5 1 2 4-9 10-1 2-2-1 4-15z" fill="#B3D7EF"/>
<path transform="translate(441,614)" d="m0 0 4 2 11 9-3 1-9-8 2 8 7 11 3 4-1 2-9-12-4-8z" fill="#95C7E8"/>
<path transform="translate(625,631)" d="m0 0h2l-4 16-1 5v15l1 5h2v3l-3-1-3-8v-11l5-21z" fill="#CEE3F3"/>
<path transform="translate(549,742)" d="m0 0 3 1-3 1 5 5 11 9 7 5h4l2-5 2-1-1 4-4 5-5-2-11-8-13-10v-2z" fill="#D0E4F3"/>
<path transform="translate(705,638)" d="m0 0 5 1 16 10 7 7 2 1v2h2l5 6-1 3-7-8-8-8-14-9-6-3z" fill="#9ECCEB"/>
<path transform="translate(453,385)" d="m0 0 2 1-3 5v6l14 2v1l-15 1-2-1-2-9 4-5z" fill="#0B1F39"/>
<path transform="translate(679,659)" d="m0 0 9 6 11 8 3 3-6-2-16-12zm5 13 6 1 10 3 1 2-10-2-7-3z" fill="#98C8E9"/>
<path transform="translate(787,606)" d="m0 0 3 1-2 4-6 3h-7l-4-2 8-3z" fill="#A2CAE7"/>
<path transform="translate(374,511)" d="m0 0 2 1 6 4-1 2-16 5-11-1-4-2 3-1 4 1h10l10-4-7-3z" fill="#C6DEF0"/>
<path transform="translate(611,701)" d="m0 0 10 2 23 6v2l-11-2-13-3-1 2-8-6z" fill="#94C6E8"/>
<path transform="translate(707,657)" d="m0 0 11 6 9 7 10 9 1 2-4-1-5-5-8-7-14-9z" fill="#97C8E9"/>
<path transform="translate(449,217)" d="m0 0 5 5 6 7 10 15 3 5-1 3-10-16-10-13-3-4z" fill="#CFE4F3"/>
<path transform="translate(447,352)" d="m0 0 7 6 5 4-2 1h-8l-2-2z" fill="#9DCAE9"/>
<path transform="translate(794,592)" d="m0 0 7 1v4l-5 6h-4l1-2z" fill="#8BBBDD"/>
<path transform="translate(374,551)" d="m0 0 5 2 10 9 6 4v-3h2l4 8-6-2-9-7-12-10z" fill="#CDE2F2"/>
<path transform="translate(550,232)" d="m0 0 1 3-11 23-2 5h-1l1-13h3z" fill="#CBE2F2"/>
<path transform="translate(621,732)" d="m0 0 9 3 20 9 2 1v2h-5v-2l-26-11z" fill="#93C5E7"/>
<path transform="translate(458,608)" d="m0 0 4 2 3 2 2 5 12 12 3 2-1 3-20-20z" fill="#8EC1E5"/>
<path transform="translate(441,698)" d="m0 0h10v1l-7 1 10 13 5 6 3 1v2l-4-1-12-14-5-7z" fill="#CEE3F3"/>
<path transform="translate(407,641)" d="m0 0 4 5 4 9h1l1-7h1v12l-2 4h-2l-3-12-4-8z" fill="#CBE1F2"/>
<path transform="translate(552,244)" d="m0 0 1 2-2 8 5-9 1 3-10 17-1-4 5-16z" fill="#D0E5F3"/>
<path transform="translate(538,313)" d="m0 0 3 1-8 8-6 16-2 4 1-10 4-10z" fill="#D4E7F5"/>
<path transform="translate(240,607)" d="m0 0 7 1 11 4-2 2h-8l-5-3z" fill="#ABD1EB"/>
<path transform="translate(548,605)" d="m0 0h33l-4 3h-18l-11-2z" fill="#5B9ED4"/>
<path transform="translate(720,570)" d="m0 0h7l11 8 8 12-1 2-8-11-8-7-10-2z" fill="#D0E5F3"/>
<path transform="translate(547,508)" d="m0 0h1l-1 13-3 12-2 1 2-16z" fill="#A9CFEA"/>
<path transform="translate(208,582)" d="m0 0 5 3 3 3v3l-5 1-4-5-1-4z" fill="#9DCCEA"/>
<path transform="translate(429,264)" d="m0 0 7 6 8 11 3 5-4-2-6-4 1-2-2-4-7-8z" fill="#D1E5F4"/>
<path transform="translate(563,300)" d="m0 0 7 5 3 4 7 2-1 4-5-2-8-7-3-1z" fill="#79ADD3"/>
<path transform="translate(308,546)" d="m0 0 4 1 10 8 8 10 1 5-4-5-7-9-12-9z" fill="#CDE2F2"/>
<path transform="translate(436,575)" d="m0 0 2 1 3 14v6h-3l-4-7 1-2 3 4-1-9z" fill="#C4DDF0"/>
<path transform="translate(464,302)" d="m0 0 2 1-12 8-5 2-2-1v-2l4-1 8-6z" fill="#78A8CC"/>
<path transform="translate(241,586)" d="m0 0 4 1 2 5v5l-5-2-3-7z" fill="#AFD3ED"/>
<path transform="translate(592,270)" d="m0 0 2 1-5 7 4-3h2v2l-11 8-2 1 2-5 7-10z" fill="#CFE4F3"/>
<path transform="translate(455,626)" d="m0 0 5 2 13 10 6 4v2l-5-2-13-10-6-5z" fill="#9ACAEA"/>
<path transform="translate(426,281)" d="m0 0 4 1 11 8 1 3-6-1-7-3 3-1h2l-8-6z" fill="#C5DEF0"/>
<path transform="translate(512,706)" d="m0 0 5 2 16 11 2 4-3 1v-3l-17-12-3-1z" fill="#CEE3F3"/>
<path transform="translate(499,287)" d="m0 0h1l1 6 1-5h1v8l-2 8h-3z" fill="#CDE2F2"/>
<path transform="translate(469,295)" d="m0 0 3 2v2l-4 1v2l-9 2v-2z" fill="#B4D2E7"/>
<path transform="translate(585,653)" d="m0 0h3l4 5v2l-7 1h-9l-3-2 14-1z" fill="#94C6E8"/>
<path transform="translate(228,592)" d="m0 0 7 1-1 9-4-2-2-5z" fill="#B0D1E7"/>
<path transform="translate(783,586)" d="m0 0 5 1-1 5-2 4-3-1-1-3z" fill="#96C6E8"/>
<path transform="translate(573,619)" d="m0 0h9l-1 2-7 4-11 7-2-1 13-9h2v-2z" fill="#8EC2E6"/>
<path transform="translate(444,569)" d="m0 0 5 2v3l8 11 3 4-1 2-12-15-3-5z" fill="#90C3E6"/>
<path transform="translate(279,561)" d="m0 0h13l1 2-16 2-7 1 2-2 7-1z" fill="#C7E0F1"/>
<path transform="translate(323,653)" d="m0 0h2l-2 4-10 11-5 6v-3l9-11z" fill="#96C7E8"/>
<path transform="translate(543,591)" d="m0 0 2 1-9 6-4 3-1 2-5-2 1-2z" fill="#91C4E7"/>
<path transform="translate(341,507)" d="m0 0h10l-1 3-7 2h-5z" fill="#1C3C5C"/>
<path transform="translate(319,566)" d="m0 0 5 2 7 5 2-2 3 4-1 4-11-8z" fill="#CAE1F2"/>
<path transform="translate(463,743)" d="m0 0 4 1 9 11 3 5-4 1-1-5-8-9z" fill="#CBE1F2"/>
<path transform="translate(356,654)" d="m0 0 3 1h-2l-2 4-13 14-2-1 14-15z" fill="#9CCBEA"/>
<path transform="translate(429,600)" d="m0 0 3 1 2 7v4l-5-2-5-4v-2l4 2 3 2z" fill="#C5DEF0"/>
<path transform="translate(348,544)" d="m0 0 7 6 7 7 3 5-1 2-9-11-7-7z" fill="#C7DFF1"/>
<path transform="translate(737,519)" d="m0 0 5 2 8 6 1 2-5-1-9-7z" fill="#A5CCE9"/>
<path transform="translate(477,502)" d="m0 0h1l3 20-1 4-2-3-1-7z" fill="#79B3DE"/>
<path transform="translate(657,665)" d="m0 0 4 2-9 2-4 3 1 2-6-1 5-5z" fill="#93C5E7"/>
<path transform="translate(292,518)" d="m0 0 2 2-9 8-4-1 7-6z" fill="#9EC9E8"/>
<path transform="translate(456,642)" d="m0 0 7 6 9 9-1 2-11-10-4-5z" fill="#9DCCEB"/>
<path transform="translate(393,574)" d="m0 0 8 4 7 5-1 2-9-6-2 3-3-6z" fill="#C7DFF1"/>
<path transform="translate(489,475)" d="m0 0h2v2l-9 5-6 5-2-1 5-5z" fill="#CBE2F2"/>
<path transform="translate(488,718)" d="m0 0 4 2 7 8 5 7-4-2-7-8-5-5z" fill="#D1E5F4"/>
<path transform="translate(345,648)" d="m0 0 4 1v2l-8 7-6 6-2-1 12-12z" fill="#A6D2EE"/>
<path transform="translate(761,576)" d="m0 0h5l-1 5-5 2v-6z" fill="#B0D4ED"/>
<path transform="translate(342,537)" d="m0 0h15v1l-13 1 3 5-4-2-3-4z" fill="#D0E4F3"/>
<path transform="translate(500,484)" d="m0 0 6 1 2 1v2l-8 1-3-3z" fill="#9FCBE9"/>
<path transform="translate(580,385)" d="m0 0h4v11l-5 1-3-2h6v-9z" fill="#C1DCF0"/>
<path transform="translate(614,643)" d="m0 0 1 4-4 13h-2l-1-6 2-1z" fill="#CCE2F2"/>
<path transform="translate(614,571)" d="m0 0h2v4l-4 1-5 5-2-1 7-8z" fill="#B3D5ED"/>
<path transform="translate(677,507)" d="m0 0 11 1v4l-9-2-3-2z" fill="#132B46"/>
<path transform="translate(425,414)" d="m0 0 4 4 1 9-6-4-2-4 5 4z" fill="#D2E6F4"/>
<path transform="translate(643,646)" d="m0 0v3l-7 7-5 6v-3l7-8z" fill="#DBECF7"/>
<path transform="translate(440,647)" d="m0 0 4 2 6 8v4h-2l-1-5-5-6-3 2z" fill="#CEE4F3"/>
<path transform="translate(376,600)" d="m0 0h1v11l-5-1-4-6 1-2 5 6h1z" fill="#B1D3EC"/>
<path transform="translate(598,594)" d="m0 0 1 3-3 9 1 3-4 2 2-10z" fill="#CBE2F2"/>
<path transform="translate(322,590)" d="m0 0 10 1 4 2-1 2-6-2h-9l-1-2z" fill="#C6DEF0"/>
<path transform="translate(331,555)" d="m0 0h7l5 1v1h-8l4 5-1 2-7-8z" fill="#B9D7ED"/>
<path transform="translate(418,293)" d="m0 0 7 1 9 6v1h-5l-4-4-7-3z" fill="#C9E0F1"/>
<path transform="translate(484,288)" d="m0 0 1 4-3 3-4 1 1-6z" fill="#AED3ED"/>
<path transform="translate(686,555)" d="m0 0h10l-2 4-2 3h-2l2-4-6-1z" fill="#CCE2F2"/>
<path transform="translate(535,490)" d="m0 0 4 1 2 2-1 4-8-5z" fill="#B1D4ED"/>
<path transform="translate(490,489)" d="m0 0 2 1-1 4-7 4 1-4z" fill="#CCE2F2"/>
<path transform="translate(494,233)" d="m0 0 2 4v11l-2-1-1-8z" fill="#B9D6ED"/>
<path transform="translate(549,742)" d="m0 0 3 1-3 1 8 8-1 2-10-8v-2z" fill="#C8DFF1"/>
<path transform="translate(240,607)" d="m0 0 7 1 1 4 2 1h-5z" fill="#C2DDF0"/>
<path transform="translate(205,577)" d="m0 0 4 2 4 5-1 3-4-4-3-1z" fill="#C2DDF0"/>
<path transform="translate(525,439)" d="m0 0h1l1 15-2-1-3-6 1-3 1 2z" fill="#4B86B6"/>
<path transform="translate(418,232)" d="m0 0 4 2 8 6 2 4-8-6-6-4z" fill="#CBE1F1"/>
<path transform="translate(429,745)" d="m0 0 7 6 1 3-5-2-3-3z" fill="#8AA9C2"/>
<path transform="translate(269,530)" d="m0 0h2l-2 4-4 2-5 1 1-3z" fill="#C0DDF1"/>
<path transform="translate(374,511)" d="m0 0 2 1 6 4-1 2-5 1v-4l-6-2z" fill="#BAD8EE"/>
<path transform="translate(562,299)" d="m0 0 4 1 10 9-3 1-5-6-6-4z" fill="#C9E1F2"/>
<path transform="translate(582,272)" d="m0 0v3l-7 6 1-6 1-2h4z" fill="#C3DFF2"/>
<path transform="translate(712,549)" d="m0 0h2l-2 4-7 6v-3z" fill="#BDDDF1"/>
<path transform="translate(695,542)" d="m0 0m-3 1 3 1 3 2-7 2-4-1z" fill="#C0DEF1"/>
<path transform="translate(553,529)" d="m0 0 1 3-2 9-4 2 1-5z" fill="#BEDAEF"/>
<path transform="translate(478,254)" d="m0 0 2 3 1 8h-2l-3-6z" fill="#ACCFEA"/>
<path transform="translate(532,232)" d="m0 0 2 3-1 9-2 2v-9z" fill="#CAE1F2"/>
<path transform="translate(589,758)" d="m0 0 8 1v2h-6l-5 4 2-5z" fill="#C5DFF2"/>
<path transform="translate(260,585)" d="m0 0 2 1 2 10-3-1-4-5 1-2 2 2z" fill="#C8E0F1"/>
<path transform="translate(547,508)" d="m0 0h1l-1 13-3 1 1-9z" fill="#7FB7E0"/>
<path transform="translate(492,380)" d="m0 0 4 4 2 10-2-1-3-7-1-1z" fill="#6A839B"/>
<path transform="translate(532,220)" d="m0 0h1l1 10 2 4-2 4-2-6z" fill="#9BCAE9"/>
<path transform="translate(810,593)" d="m0 0" fill="#5B9ED4"/>
<path transform="translate(615,439)" d="m0 0" fill="#ABD6F0"/>
</svg>

